<svg width="73" height="40" viewBox="0 0 73 40" fill="none" xmlns="http://www.w3.org/2000/svg">
<g id="editioncrafterlogo 1" clip-path="url(#clip0_288_12623)">
<path id="Vector" d="M70.7926 37.4446C70.8283 37.2529 70.9804 37.2038 70.9049 36.9928C70.8676 36.8888 70.5561 36.7776 70.4738 36.6903C70.199 36.3994 70.0259 35.9669 69.7679 35.6461C69.6594 35.7104 69.6017 35.7449 69.5288 35.7882C69.0269 35.2497 68.47 34.7816 68.0285 34.1888C67.5812 33.5881 67.2036 32.9445 66.7589 32.3407C66.1878 31.9442 65.8233 31.3106 65.3571 30.7971C64.8658 30.2559 64.4205 29.6761 63.9528 29.1151C63.4897 28.5599 63.056 28.015 62.6391 27.4274C62.3313 26.9938 61.9023 26.7326 61.6349 26.2719H62.4619C62.4477 26.2772 62.4351 26.2824 62.422 26.2871C62.8111 26.2871 63.2002 26.2871 63.5899 26.2881L64.2365 26.2516C64.2533 26.2469 64.2706 26.2427 64.2894 26.2406C64.5946 26.2066 64.8972 26.1998 65.1972 26.226H65.6382C65.9361 26.2218 66.2339 26.2181 66.5323 26.2176C66.557 26.2176 66.5801 26.2207 66.601 26.226H66.6356C66.6356 26.2296 66.6346 26.2333 66.6346 26.2369C66.6383 26.2385 66.6419 26.2406 66.6451 26.2422C67.3997 26.2369 68.1533 26.2291 68.9069 26.144C69.1622 26.0217 69.4355 25.9371 69.6919 25.818C69.6221 25.4826 68.9525 24.789 68.7799 24.5278C68.0951 23.4899 67.4574 22.4185 66.7966 21.3649C65.4699 19.2488 64.1699 17.1056 62.6769 15.1003C61.8903 14.0436 61.121 12.9743 60.3936 11.8763C59.7785 10.9475 59.2111 9.81351 58.2608 9.17519C57.7343 9.49487 56.8365 9.49278 56.2356 9.35384C55.9807 9.29481 55.7452 9.19661 55.4762 9.17624C55.1327 9.15064 54.9691 9.30578 54.6503 9.35958C54.3362 9.41286 54.0058 9.27653 53.6843 9.26817C53.2774 9.2572 52.8809 9.3601 52.4735 9.37525C51.6522 9.40555 50.8279 9.39406 50.0066 9.36637C50.0019 9.32981 49.9972 9.29272 49.9925 9.25616C51.2238 8.88267 52.4551 8.50919 53.688 8.13518C53.7063 8.0281 53.7263 7.91579 53.7499 7.77789C53.6051 7.76639 53.409 7.91109 53.2784 7.80087C53.0912 7.6426 53.3414 7.39448 53.4111 7.25657C53.2685 7.10405 52.9412 7.50417 52.7991 7.15263C52.85 7.07375 52.8987 6.99853 52.99 6.85749C52.7105 6.92018 52.4341 6.80944 52.1562 6.86115C51.8405 6.91965 51.5358 7.1521 51.2358 7.26807C50.6239 7.50417 49.9741 7.64416 49.3433 7.81915C49.7444 7.43992 49.9107 7.31456 49.6768 6.76608C49.5897 6.56184 49.4932 6.49341 49.3475 6.33409C49.113 6.07814 49.1948 6.16172 49.1303 5.83629C49.0685 5.52496 48.9557 5.03604 48.5011 5.15618C48.1135 5.25856 48.0039 5.8786 48.0857 6.18731C47.727 6.41192 47.0616 6.65377 47.1266 7.1568C47.1481 7.32396 47.2975 7.44619 47.3217 7.61752C47.2294 7.73714 47.2131 7.8646 47.2729 8.00041C47.3542 8.1169 47.4176 8.24226 47.4622 8.37703C46.0196 9.07751 44.4893 8.87013 42.936 8.95267C42.1672 8.99341 41.4027 9.08012 40.6328 9.10415C40.2951 9.1146 39.1115 8.94953 39.0024 9.41652C38.9285 9.35436 38.8729 9.30682 38.8168 9.25981C38.8619 9.16997 38.908 8.91871 39.0003 8.84976C39.1 8.77507 39.2075 8.85028 39.304 8.79335C39.5552 8.645 39.7497 8.3342 39.9296 8.10122C40.1252 7.84788 40.3218 7.58827 40.4383 7.28739C40.5615 6.97032 40.4425 6.65116 40.5264 6.36334C40.6832 5.82584 41.8699 5.70361 42.3676 5.5913C42.9287 5.46437 43.9408 5.54899 44.2151 4.91433C43.6844 4.70695 42.9077 5.0188 42.3288 5.07156C41.8421 5.11596 41.0938 5.39281 40.636 5.24341C40.8426 4.94619 41.5359 5.01671 41.883 4.98119C42.2952 4.93888 42.5794 4.8903 42.9156 4.6427C43.226 4.41391 43.9906 3.96991 44.0777 4.60248C44.3834 4.65681 44.7232 4.35697 44.664 4.02475C44.5916 3.62097 43.957 3.95319 43.6555 4.02057C42.6869 4.23735 41.6879 4.56644 40.6936 4.56644C40.7639 3.96886 40.7188 3.32323 40.8463 2.73976C40.992 2.07375 40.6853 2.16098 40.0355 2.19441C39.5656 2.21844 38.8996 2.40858 38.4644 2.1777C38.1712 2.02204 38.3983 1.95779 37.9793 1.9301C37.6919 1.9113 37.3773 2.02151 37.1298 2.15576C36.6693 2.0795 36.2671 2.21583 35.8077 2.22837C35.5088 2.23673 34.9105 2.06644 34.6997 2.37254C34.5276 2.6217 34.7867 3.36815 34.7993 3.68104C34.8187 4.1637 34.8481 4.64061 34.9099 5.11961C34.9556 5.47273 35.1124 5.92718 35.0898 6.27611C35.083 6.38476 34.943 6.35917 34.9251 6.4605C34.8932 6.64281 34.9278 6.85854 34.9325 7.04554C34.9477 7.66506 35.32 8.87013 36.1554 8.85394C36.2745 9.45988 35.7637 9.31988 35.287 9.31257C34.7175 9.30369 34.1506 9.22952 33.5816 9.20862C32.2124 9.159 30.8542 9.23422 29.4849 9.18198C28.2138 9.1334 27.0873 9.20758 25.8718 8.74895C24.6509 8.28771 23.407 7.91056 22.2035 7.40283C21.0026 6.89615 19.8374 6.44431 18.6742 5.85352C17.637 5.32699 16.543 4.86105 15.4811 4.38361C14.3049 3.85551 13.0867 3.42927 11.9109 2.90482C11.3278 2.64469 10.7557 2.35478 10.1846 2.06957C9.69478 1.82459 9.51124 1.4955 9.01829 1.30327C9.27473 1.30066 9.4567 1.24007 9.53379 0.960086C9.43153 0.951728 9.35024 0.944937 9.24693 0.936057C9.35653 0.633613 9.48082 0.592869 9.29465 0.297215C9.13209 0.0386481 8.94645 -0.0276912 8.66169 0.00991847C7.93014 0.10551 7.93801 0.702041 7.52949 1.18C7.43877 1.15597 7.30347 1.12097 7.1687 1.08545C7.15821 1.11888 7.14825 1.15231 7.13776 1.18627C7.24893 1.23171 7.35959 1.27768 7.46342 1.32051C7.39315 1.55401 7.31081 1.77235 6.95159 1.72273C7.3019 2.0586 6.96366 2.36209 7.02134 2.68752C6.79847 2.65148 6.60339 2.62014 6.40883 2.58932C6.40044 2.61909 6.39205 2.64886 6.38366 2.67864C6.56353 2.75804 6.85143 2.8202 6.97152 2.98474C7.11731 3.18428 6.98516 3.46792 7.11259 3.68C7.41203 4.17728 7.83313 3.61575 8.27153 3.74843C8.48392 3.81268 8.76186 3.93439 8.97372 4.01483C9.18348 4.09423 9.27997 4.14281 9.36912 4.35436C9.59986 4.89866 9.07912 5.64667 9.18977 6.21238C9.21337 6.22388 9.23645 6.23537 9.26004 6.24686C9.42681 5.99508 9.517 5.80024 9.59829 5.51034C9.65335 5.31236 9.6523 4.85687 9.75509 4.70382C9.98897 4.35488 10.9397 4.88351 11.258 4.99686C11.7992 5.18961 12.3614 5.38863 12.88 5.63413C13.3824 5.87181 13.7836 6.16694 14.318 6.36857C14.9032 6.58952 15.4166 6.95361 16.0155 7.14374C16.5467 7.31247 17.0816 7.51148 17.6008 7.72043C18.0848 7.91527 18.5232 8.18846 19.0266 8.39009C19.6984 8.6591 20.3623 8.94431 21.0262 9.23056C20.2233 9.37839 19.3098 9.2034 18.5007 9.1543C17.6217 9.10102 16.7481 9.03363 15.8676 9.01326C14.9373 8.99184 13.9844 9.06236 13.0589 9.00647C12.2408 8.95685 11.4243 8.70611 10.5957 8.64866C10.3686 8.63299 9.58098 8.74372 9.43939 8.53896C9.25847 8.27674 9.59514 7.63998 9.54585 7.33545C9.51019 7.11554 9.48816 6.92174 9.24746 7.1427C9.07702 7.29889 9.11268 7.81027 9.09013 8.0328C9.00623 8.8576 9.06129 9.68971 9.01357 10.5171C8.98735 10.9658 8.96165 11.414 8.93596 11.8627C8.92128 12.1197 8.78545 12.5982 9.00256 12.8056C9.07283 12.7314 9.28679 12.5528 9.3172 12.4561C9.33713 12.3929 9.22438 12.2905 9.22753 12.2195C9.23959 11.9547 9.25952 11.6903 9.27158 11.4255C9.30934 10.596 9.35077 9.76702 9.38957 8.93804C11.1238 8.93804 12.7783 9.30421 14.5083 9.27862C16.2006 9.25354 17.8761 9.55285 19.5563 9.55233C20.3623 9.55233 21.3325 9.45413 22.1049 9.72053C22.8517 9.97805 23.5853 10.3009 24.3394 10.5579C25.1386 10.8305 25.9016 11.2045 26.7019 11.4762C27.0365 11.5895 27.3988 11.6397 27.7124 11.8079C28.0187 11.9719 28.1645 12.1187 28.519 12.1349C28.5242 12.103 28.5289 12.0706 28.5342 12.0388C28.4141 11.9708 28.294 11.9024 28.1094 11.7979C28.5101 11.765 28.7303 12.1803 29.0937 11.9876C28.4314 11.5754 27.6935 11.3304 26.9914 11.0092C26.9777 11.0322 26.9646 11.0546 26.951 11.0776C27.0595 11.1513 27.1681 11.2254 27.2761 11.2991C27.2614 11.3315 27.2468 11.3644 27.2315 11.3968C25.7711 10.8567 24.3263 10.3097 22.9036 9.67718C22.9067 9.63748 22.9104 9.5983 22.9136 9.5586C23.9986 9.4348 25.2178 10.1551 26.2514 10.5265C26.8545 10.7433 27.4418 11.017 28.0344 11.2604C28.5158 11.4584 29.2201 11.9223 29.7351 11.881C29.6554 11.4292 28.6742 11.3252 28.3595 10.9381C28.369 10.9152 28.379 10.8922 28.3884 10.8692C29.3428 11.2547 30.2967 11.6397 31.2511 12.0252C31.2622 11.9996 31.2732 11.9735 31.2847 11.9479C30.1541 11.2939 28.9023 10.8906 27.7407 10.2904C28.0512 10.2873 28.3632 10.4341 28.6516 10.5312C28.6789 10.2523 28.1818 10.1708 27.9982 10.0945C28.0087 10.0689 28.0197 10.0433 28.0302 10.0178C28.7298 10.2622 29.4577 10.4179 30.1446 10.7005C30.6591 10.912 31.2527 11.3827 31.8406 11.2437C31.8416 11.216 31.8421 11.1884 31.8432 11.1607C32.5092 11.5446 33.2182 12.0246 33.9629 12.2446V12.0053C34.3703 12.0978 34.6194 12.2608 35.0122 12.3919C35.7086 12.6248 35.6085 12.7748 35.5571 13.4695C35.3331 13.3107 35.1375 13.1717 34.8916 12.9968C35.051 12.9492 35.1575 12.9179 35.3122 12.8714C34.932 12.6849 34.7227 12.453 34.3037 12.4995C34.0483 12.5277 33.9545 12.6463 33.6765 12.5684C33.5113 12.5225 33.3414 12.4195 33.181 12.3569C33.1694 12.383 33.1584 12.4091 33.1469 12.4347C33.2948 12.5376 33.4426 12.6405 33.643 12.78C33.4542 12.8134 33.3399 12.8338 33.2276 12.8536C33.2638 13.5217 32.14 12.4608 31.7404 12.9487C31.904 13.3123 32.3466 13.0208 32.6267 13.3337C32.0734 13.4204 31.6591 13.4303 31.1143 13.6194C30.4362 13.855 29.7382 13.9553 29.0387 14.1031C28.3868 14.2405 27.7712 14.5017 27.1172 14.626C26.5152 14.7404 25.9604 14.6589 25.3725 14.9253C24.9189 15.1311 24.459 15.3286 23.9414 15.3578C23.6315 15.3756 23.5067 15.3239 23.1946 15.3834C22.88 15.4435 22.5622 15.5986 22.2638 15.7109C21.7037 15.922 21.0204 16.3696 20.4352 16.4548C19.936 16.5279 19.5233 16.1319 19.1462 15.8603C19.9365 15.7971 19.4713 14.954 18.9496 14.8412C18.6354 14.7733 18.3454 14.8574 18.1309 15.1337C17.9453 15.3724 18.0203 15.6467 17.874 15.8964C17.7188 16.1612 17.315 16.2427 17.2069 16.5289C17.0732 16.882 17.4644 16.9369 17.4613 17.1934C17.4587 17.4592 16.994 17.3391 16.8121 17.4164C16.5567 17.524 16.1613 17.873 16.1057 18.1441C16.316 18.0856 16.4916 18.0359 16.6516 17.9915V18.7531C16.6269 18.7563 16.6018 18.7589 16.5771 18.762C16.7025 18.9965 16.9872 18.8874 17.2038 18.8952C17.08 19.0697 16.9342 19.16 16.8267 19.3528C17.4906 19.5518 16.9416 20.0972 17.1666 20.562C17.2767 20.7898 17.4964 20.8008 17.6726 20.9653C17.8666 21.1466 17.9888 21.4615 18.1268 21.6856C18.314 21.7478 18.5966 21.7906 18.7665 21.8935C18.7996 21.9134 19.0308 22.1443 19.024 22.1411C19.2584 22.2482 19.3565 22.2049 19.486 21.9045C19.6502 21.5232 19.5411 20.9543 19.5689 20.549C19.5988 20.1097 19.6643 19.6589 19.7094 19.2212C19.8059 18.2804 20.5805 18.1723 21.3881 18.1399C21.7724 18.1242 22.2497 17.7795 22.6125 17.8322C22.6194 17.8333 22.6257 17.8348 22.6325 17.8364C22.665 17.8212 22.7027 17.8124 22.7468 17.8124C22.7683 17.8124 22.7888 17.8144 22.8076 17.8186C22.8496 17.7732 22.9109 17.7429 22.9917 17.7429C23.0001 17.7429 23.008 17.7434 23.0163 17.7439C23.9849 17.4133 25.0227 17.3443 26.017 17.1009C27.1885 16.8141 28.338 16.4589 29.5195 16.2108C30.0875 16.0912 30.6465 15.9408 31.206 15.7872C31.7499 15.6378 32.4054 15.3385 32.9675 15.4618C33.3892 15.5542 33.6577 15.8922 34.0478 16.0222C34.5203 16.18 35.1858 16.1434 35.6808 16.2035C35.653 16.6689 35.2613 17.0685 35.6001 17.5961C34.7935 17.5402 33.9665 17.43 33.1605 17.5313C32.9119 17.5627 32.6529 17.6614 32.4027 17.6698C32.322 17.6724 31.8705 17.5559 31.8086 17.5825C31.5537 17.6927 31.7221 17.9769 31.7666 18.1832C31.8893 18.7521 32.2963 19.6751 31.2962 19.6338C30.5678 19.6035 29.6375 19.1585 29.6375 20.2768C30.0859 20.5412 30.5448 20.8112 30.9937 21.0755C31.2643 20.9831 31.356 21.099 31.6371 21.1027C31.8988 21.1058 32.193 20.9606 32.44 20.8833C32.9938 20.7104 33.3173 20.5041 33.9183 20.4785C34.3939 20.4581 35.1617 20.2586 35.6174 20.3933C36.0206 20.5129 36.1748 20.8076 36.6484 20.8311C37.8099 20.889 38.8561 20.2831 39.9915 20.2967C40.5201 20.303 41.3555 20.0355 41.85 20.1901C42.1069 20.2706 42.2553 20.4962 42.3796 20.7491C42.4079 20.7658 42.431 20.7877 42.4494 20.8133C42.5065 20.819 42.5532 20.8405 42.5878 20.8718C42.6125 20.8791 42.6345 20.8896 42.6544 20.9026C43.6581 21.3283 44.8968 21.2103 45.9262 20.8493C45.9283 20.806 45.9299 20.7621 45.932 20.7188C45.5958 20.5908 45.3074 20.5652 44.9618 20.4915C44.6299 20.421 44.4851 20.4424 44.6624 20.14C44.7819 19.9357 45.0053 20.0799 44.8921 19.789C44.8139 19.5884 44.31 19.4599 44.1327 19.3768C43.914 18.8691 43.312 18.5144 42.9208 18.1394C42.463 17.7006 42.3649 17.7795 41.7881 17.8437C41.1976 17.9095 40.5557 17.8468 39.9626 17.8427C39.6013 17.84 38.9343 17.9905 39.165 17.4415C38.7591 17.0816 39.0989 16.5744 39.2374 16.145C39.2541 16.1476 39.3407 16.1607 39.3842 16.1675C39.8787 15.8953 40.2012 15.5955 40.7587 15.7031C41.2511 15.7982 41.7451 15.9031 42.2338 16.0134C43.3251 16.2599 44.4007 16.5712 45.4794 16.8643C46.5597 17.1578 47.7197 17.2247 48.7837 17.5611C49.199 17.6927 49.6936 18.0923 50.1293 18.0762C50.3213 18.0688 50.3847 17.8829 50.5961 17.9236C50.7377 17.9508 50.9154 18.1723 51.0324 18.2642C51.0471 18.2501 51.0623 18.236 51.077 18.2219C51.0644 18.1712 51.0518 18.12 51.0371 18.062C51.8174 18.225 52.5872 18.3509 53.3555 18.5755C53.8521 18.7202 55.0813 18.8811 55.3226 19.3324C55.4615 19.5926 55.3467 20.2993 55.353 20.6064C55.3587 20.911 55.2413 21.0097 55.2114 21.2646C55.1763 21.5624 55.4002 21.8653 55.3467 22.1667C55.289 22.4901 55.0714 22.3955 54.9518 22.6583C54.8228 22.9419 55.2313 23.1608 55.4605 23.3222C55.7657 23.5379 55.7515 23.4564 56.1039 23.4444C56.3929 23.4345 56.6373 23.5463 56.9037 23.633C57.0232 23.6722 57.6609 23.9083 57.7516 23.8785C58.2435 23.716 58.0175 22.7272 58.0526 22.3454C58.1219 21.5932 58.1103 20.7585 58.3159 20.0319C58.727 20.1917 59.3553 20.3212 59.6825 20.6336C59.6883 20.6394 59.694 20.6451 59.6998 20.6508C59.7738 20.6597 59.8288 20.6952 59.865 20.7444C59.8676 20.7444 59.8697 20.7438 59.8723 20.7438C59.8687 20.7391 59.865 20.7344 59.8608 20.7297C60.3721 20.6561 60.3863 20.6362 60.2541 20.3771C60.4083 19.8746 60.8011 19.0289 60.2232 18.7725C59.5766 18.4852 58.7679 18.4768 58.147 18.1728C58.4591 17.7774 58.4806 17.5188 58.2157 17.034C58.1056 16.8329 57.8623 16.543 57.6268 16.4824C57.3237 16.4041 56.8496 16.6867 56.6399 16.9134C56.4249 17.1464 56.45 17.4723 56.406 17.7983L56.3126 17.8395C56.266 17.7591 56.2193 17.6781 56.1721 17.5977C56.1606 17.6212 56.1485 17.6442 56.137 17.6677C54.418 17.2357 52.7225 16.6741 50.993 16.2855C49.2389 15.8917 47.4973 15.4863 45.7642 15.0047C44.901 14.7649 44.0431 14.5032 43.1757 14.2797C42.5679 14.123 41.2999 14.1386 40.9684 13.5097C40.6307 12.8683 42.0015 12.5689 42.4326 12.4091C43.1065 12.1584 43.6487 11.8188 44.3556 11.741C44.6692 11.3362 45.1034 11.2249 45.5885 11.0682C45.9509 10.9512 46.4936 10.665 46.8659 10.725C46.9457 11.2187 46.8376 11.6235 46.8544 12.1072C46.868 12.4963 47.082 12.7371 47.3033 13.0448C47.2477 13.084 47.2026 13.1164 47.1344 13.1644C47.3232 13.365 48.7884 14.5335 48.8755 13.7787C48.951 13.8482 49.0034 13.8963 49.0769 13.9636C49.6941 13.1519 49.3569 11.7927 49.4015 10.8415C49.4156 10.5469 49.2531 9.93365 49.5373 9.71061C49.6112 9.65263 49.7046 9.62651 49.8079 9.62285C49.8299 9.6171 49.853 9.61345 49.8787 9.61345C50.3994 9.61084 50.9217 9.56957 51.4414 9.60039C51.9422 9.57427 52.4719 9.60979 52.9423 9.6568C53.6576 9.72784 54.2758 9.69598 54.9712 9.89186C55.0378 9.4254 55.5821 9.60457 55.9398 9.58629C55.9938 10.0063 57.9021 9.73254 58.2635 9.83545C58.9672 10.035 59.4518 11.156 59.8367 11.7128C60.8677 13.2047 61.9784 14.6255 63.0293 16.1053C64.1127 17.6295 65.2391 19.1893 66.1521 20.8217C66.5433 21.5211 67.03 22.15 67.449 22.8317C67.6881 23.2198 67.9273 23.6084 68.1701 23.9945C68.341 24.2666 68.8434 24.8062 68.8434 25.1254C68.6384 25.0799 68.5518 25.1483 68.3588 25.1363C68.0384 25.1165 67.7227 24.9404 67.3834 24.9603C66.8192 24.9937 66.2864 25.0564 65.7043 25.0345C64.3005 24.9817 62.9029 25.0945 61.4996 25.0742C58.9761 25.0381 56.4595 24.9269 53.9376 24.8569C52.6932 24.8224 51.4535 24.8349 50.2101 24.7696C49.0449 24.7085 47.8539 24.6202 46.6887 24.6834C44.3593 24.8099 42.0183 24.7493 39.691 24.9164C39.0869 24.9598 38.4785 24.9561 37.8729 24.9645C37.3768 24.9713 36.6101 25.1274 36.1371 24.9754C35.8785 24.8924 35.7815 24.7184 35.4831 24.7655C35.233 24.8052 35.0416 24.941 34.7773 24.9587C34.2036 24.9969 33.6042 24.9101 33.0294 24.8819C33.1296 24.767 33.2061 24.6787 33.3052 24.5649C33.0016 24.4651 33.0368 24.6328 32.8527 24.7409C32.57 24.9065 32.4242 24.9117 32.0367 24.9143C31.7871 24.9159 31.4237 24.9828 31.1788 24.9143C30.9491 24.8506 30.9517 24.7399 30.6895 24.7529C30.4713 24.7639 30.2097 24.9206 29.9648 24.9394C29.6853 24.9608 29.3821 24.9775 29.1021 24.9702C28.5987 24.9577 28.4429 24.7503 28.0103 25.0397C27.7984 24.6981 27.8011 24.8245 27.5137 24.9107C27.3018 24.9744 27.1177 24.9974 26.8482 24.9963C26.0889 24.9927 25.4229 25.07 24.6766 24.9242C24.5219 24.6787 24.4642 24.9034 24.266 24.953C23.9451 25.0334 23.5282 24.9535 23.1988 24.8966C23.2817 24.7843 23.332 24.7158 23.3819 24.6474C23.0583 24.6124 23.0111 24.8234 22.7505 24.9185C22.5229 25.0016 22.1521 24.9269 21.9135 24.9237C21.2475 24.9148 20.4635 25.0402 19.8159 24.8898C19.9134 24.8078 19.9868 24.7456 20.0702 24.6756C19.7571 24.4855 19.2506 24.462 19.0429 24.7848C19.1231 24.8203 19.1803 24.8454 19.239 24.8715C18.5704 25.0862 17.9432 25.0684 17.6107 24.7905C17.8687 24.7482 18.0921 24.7117 18.315 24.6756C18.3192 24.6349 18.3239 24.5936 18.3281 24.5529C17.9721 24.4385 17.8126 24.4437 17.4455 24.5246C17.5415 24.4035 17.6181 24.3063 17.6952 24.2091C17.6721 24.1877 17.649 24.1668 17.6259 24.1454C17.4786 24.2797 17.2258 24.649 16.9987 24.6145C16.7858 24.5821 16.6275 24.2384 16.4932 24.0942C16.4717 24.113 16.4497 24.1313 16.4282 24.1501C16.4597 24.2697 16.4932 24.3888 16.5284 24.5079C16.2079 24.3841 15.704 23.9286 15.6154 23.5719C15.5786 23.4251 15.7077 23.2877 15.6033 23.1414C15.4622 22.9435 15.2158 23.0072 15.0112 22.9952C15.0097 22.9889 14.7118 22.4754 14.7197 22.4859C14.6043 22.3354 14.3856 22.1991 14.2461 22.0565C13.7857 21.5864 13.5429 21.18 12.9886 20.8201C13.1239 20.8269 13.2188 20.8316 13.3137 20.8363C13.3211 20.8154 13.3284 20.794 13.3352 20.7731C13.1218 20.5866 12.9078 20.4001 12.6834 20.2037C12.6315 20.2857 12.5927 20.3468 12.547 20.4189C11.9896 20.0115 11.5244 19.4369 11.0373 18.949C10.5821 18.4935 10.1279 18.0762 9.71628 17.5783C8.88194 16.5681 8.03188 15.5897 7.16346 14.6103C5.56715 12.8108 3.96561 10.958 2.25708 9.27131C2.25499 9.24989 2.25341 9.22847 2.25132 9.20653C2.86225 9.27548 3.47424 9.41547 4.08885 9.4301C4.80466 9.44734 5.53307 9.35854 6.24731 9.31675C6.25151 9.34078 6.25623 9.36481 6.26042 9.38883C6.20379 9.44212 6.14715 9.4954 6.08422 9.55442C6.31549 9.65576 6.78955 9.54972 6.9495 9.37421C7.39996 9.68083 6.89234 10.0789 6.88027 10.4884C6.86612 10.9648 6.99879 11.4689 6.99407 11.9489C6.98988 12.3924 7.25575 12.6097 7.71513 12.7528C8.02978 12.851 8.3633 12.9571 8.50594 12.5836C8.18605 12.4446 7.71251 12.4112 7.52005 12.0455C7.30714 11.6407 7.91441 11.3613 7.65168 10.8995C6.97729 10.8666 7.48964 10.1797 7.51429 9.71479C7.55047 9.03468 7.50013 8.39479 7.60396 7.70319C7.67947 7.19912 7.72772 6.67885 7.73087 6.18209C7.73454 5.6566 7.9186 4.76807 7.71513 4.2922C7.32393 4.55599 7.31239 5.93553 7.32969 6.37379C7.36273 7.20591 7.25313 8.00563 7.14982 8.832C5.84929 8.93543 4.59542 8.97304 3.29279 8.88581C2.69497 8.84558 1.98177 8.66537 1.38552 8.74007C1.1553 8.7688 1.02105 8.902 0.796605 8.93021C0.577926 8.95789 0.21084 8.77715 0.00317383 8.72179C0.187766 9.44368 1.14901 10.1588 1.68128 10.6488C2.31844 11.2348 2.89529 11.8888 3.46742 12.5376C3.9525 13.0876 4.48582 13.6058 4.96094 14.159C5.19797 14.4348 5.37994 14.6996 5.64529 14.953C5.89701 15.1938 6.24364 15.4341 6.35167 15.7679C6.47963 16.1638 6.37894 16.7797 6.38051 17.197C6.38261 17.6254 6.38471 18.0532 6.33751 18.4794C6.24574 19.3089 6.13352 19.7106 5.22891 19.6584C4.35577 19.6082 3.48473 19.5283 2.61316 19.4614C1.94244 19.4097 1.32626 19.5252 0.684381 19.3695C0.711651 19.6589 0.892047 19.8642 0.927183 20.1901C0.967562 20.5652 0.965989 20.9428 0.979099 21.3195C1.0006 21.9385 1.39758 22.1866 1.71222 22.7173C1.93562 23.0944 2.17161 23.4371 2.46999 23.7604C2.60162 23.903 2.77258 24.0258 2.85596 24.205C2.89214 24.2828 2.82659 24.3961 2.8675 24.4823C3.18634 25.1562 3.8817 25.6796 4.34843 26.2155C4.59175 26.4945 4.71551 26.8831 4.95412 27.1793C5.16651 27.4431 5.40144 27.6886 5.61068 27.9555C6.05433 28.5212 6.47805 29.1172 6.88971 29.7064C7.76286 30.9549 8.76605 32.1803 9.72939 33.3781C10.7237 34.614 11.7143 35.8718 12.7862 37.0455C13.331 37.6421 13.8523 38.2538 14.2876 38.9365C14.4575 39.2029 14.6263 39.7294 14.8849 39.9028C15.2546 40.151 15.2299 39.8532 15.586 39.7075C16.1539 39.475 17.0528 39.5837 17.6579 39.5591C18.4262 39.5283 19.1866 39.6114 19.958 39.5696C21.6843 39.4761 23.4453 39.5727 25.1769 39.5487C26.8513 39.5257 28.5274 39.5534 30.2023 39.5523C31.077 39.5523 31.9523 39.6108 32.8259 39.6051C33.1479 39.603 33.4426 39.4275 33.7295 39.417C33.9833 39.4076 34.2177 39.7466 34.4527 39.5356C34.3672 39.4797 34.298 39.4348 34.2235 39.3857C36.6096 39.3857 38.993 39.4432 41.378 39.4468C42.5983 39.4489 43.8197 39.452 45.04 39.4641C45.5916 39.4693 46.1438 39.4776 46.6955 39.4849C47.2147 39.4917 47.9945 39.6286 48.4817 39.4405C48.4796 39.417 48.478 39.3935 48.4759 39.37C46.169 38.879 43.6802 39.4202 41.357 39.2222C38.9893 39.0206 36.5361 38.9354 34.1616 39.0791C32.1222 39.2024 30.0754 39.0853 28.037 39.1705C25.7286 39.2666 23.4443 39.1835 21.1369 39.2029C19.9721 39.2128 18.8085 39.2196 17.6443 39.2588C17.0931 39.2771 16.5399 39.3288 15.9887 39.3329C15.511 39.3366 15.5162 39.3497 15.576 38.9015C15.6411 38.4131 15.7134 38.0323 16.209 37.9111C16.6616 37.8003 17.2447 37.8489 17.7104 37.8275C18.6999 37.7815 19.7928 37.8113 20.7761 37.9074C22.7846 38.1044 24.8413 37.8301 26.8613 37.9309C27.9096 37.9832 28.9401 37.9753 29.9905 37.9492C30.4703 37.9372 30.9097 38.0746 31.3759 38.0009C31.6282 37.9612 31.8804 37.9142 32.1337 37.8824C32.3797 37.8515 32.504 37.9513 32.698 37.9341C33.224 37.8876 33.6634 37.7465 34.2161 37.7565C34.7217 37.7659 35.2272 37.7251 35.7291 37.745C36.7548 37.7852 37.7722 37.7398 38.8 37.7309C39.4167 37.7257 40.0287 37.6974 40.6449 37.6781C41.1761 37.6614 41.69 37.768 42.2207 37.7507C42.7142 37.7345 43.2061 37.6645 43.698 37.6457C43.9492 37.6358 44.7667 37.9534 44.8239 37.6118C45.5025 37.6118 46.1769 37.5846 46.8555 37.5705C47.416 37.559 48.4769 37.8719 48.9159 37.4472C48.0134 37.1082 46.8402 37.313 45.8942 37.3276C44.7951 37.3448 43.7017 37.4441 42.603 37.4504C40.3292 37.4629 38.0569 37.5157 35.7831 37.5115C33.6152 37.5078 31.4698 37.6666 29.3045 37.711C28.1975 37.7335 27.0884 37.7001 25.9814 37.6912C25.1596 37.6849 23.8706 37.9226 23.1275 37.5721C22.2717 37.9022 21.0262 37.6395 20.1216 37.5945C19.0838 37.5428 18.0701 37.4854 17.0328 37.5439C16.586 37.5689 16.0186 37.6212 15.5902 37.4462C15.1749 37.2764 14.9315 36.88 14.6657 36.5425C14.1234 35.8535 13.6556 35.1348 13.0143 34.5309C12.342 33.8978 11.5596 33.3645 10.9722 32.651C10.3681 31.917 9.85577 31.1157 9.31616 30.3353C8.72357 29.4782 8.06911 28.6638 7.42094 27.8479C7.14982 27.5063 6.61964 27.0565 6.47281 26.6553C6.31077 26.2124 6.61755 26.1946 6.99722 25.9632C6.56406 25.4863 6.11988 24.6093 5.4198 24.5361C5.26981 24.5205 5.16651 24.6067 5.02754 24.5361C4.87389 24.4578 4.71971 24.0958 4.63476 23.9699C4.39877 23.6231 4.12241 23.3117 3.85391 22.9905C3.87856 22.9832 3.90268 22.9753 3.92733 22.968C3.8665 22.6494 3.59223 22.5982 3.36621 22.3417C3.02744 21.9578 2.75003 21.5127 2.44744 21.1006C2.56177 21.0693 2.6441 21.0463 2.72643 21.0238C2.72433 21.0029 2.72276 20.9815 2.72066 20.9606C2.43119 20.9449 2.352 20.9131 2.13752 20.7172C2.46108 20.3944 2.42227 20.3683 2.31005 19.9373C2.91732 20.0261 3.55133 19.919 4.12293 20.0339C4.72915 20.1557 5.35057 20.0961 5.99245 20.0627C6.04804 20.3818 6.24889 20.8347 6.24679 21.1393C6.24469 21.46 6.01343 21.6036 5.9956 21.9599C5.98144 22.2482 6.01552 22.5334 6.31182 22.3166C6.53941 22.15 6.55724 21.379 6.56039 21.1283C6.58451 19.4181 6.66841 17.7204 6.66841 16.004C6.68519 15.9904 6.70145 15.9773 6.71823 15.9637C7.31396 16.7055 8.45875 17.5021 8.40998 18.5092C8.35177 19.7064 8.14672 20.8833 8.10687 22.0842C8.10057 22.2775 8.17085 22.5595 7.96842 22.6562C7.88085 22.698 7.28931 22.6724 7.18391 22.6442C6.9474 22.5804 6.56143 22.0163 6.39048 22.5783C6.18858 23.2433 8.8767 22.8176 9.22019 22.7272C9.05605 22.4478 8.8101 22.7277 8.67743 22.6217C8.6554 22.4697 8.63757 22.3422 8.61502 22.1871C9.34342 22.2341 10.0136 22.1072 10.73 22.0273C11.1269 21.9829 12.332 21.7024 12.3441 22.3689C12.2182 22.4222 12.0976 22.4728 11.9775 22.524C11.9823 22.5491 11.9875 22.5736 11.9922 22.5987C12.4715 22.5616 12.8732 22.675 13.1003 23.1498C11.6194 23.131 10.1788 23.4058 8.73406 23.6434C8.73563 23.6868 8.73773 23.7301 8.73931 23.7735C9.76767 23.7735 10.752 23.4366 11.7809 23.435C12.4652 23.4345 13.4065 23.142 13.7175 23.8801C12.7206 23.9396 11.7232 23.9396 10.7347 24.0874C9.75666 24.2342 8.55629 24.265 7.66741 24.7022C7.67528 24.732 7.68262 24.7623 7.69049 24.7921C8.29775 24.8449 8.9627 24.602 9.5663 24.5132C10.2155 24.4176 10.8705 24.3591 11.5234 24.2979C12.1411 24.24 12.7605 24.171 13.3803 24.1397C13.9346 24.1115 14.114 24.2823 14.5387 24.6343C13.6745 24.7399 12.815 24.7472 11.9497 24.8757C11.9529 24.906 11.956 24.9363 11.9592 24.9666C12.912 25.0846 14.1753 24.5017 15.0327 25.0877C15.0479 24.9885 15.0584 24.919 15.0574 24.9263C15.2126 25.1008 15.3951 25.3056 15.5771 25.5098C15.3275 25.2669 14.2309 25.4826 13.921 25.5015C13.3426 25.5375 12.7626 25.5714 12.1862 25.6367C11.5764 25.7057 10.9733 25.818 10.3671 25.9125C9.95174 25.9773 9.51071 25.8546 9.22071 26.1748C10.4541 26.1152 11.6618 25.9058 12.8916 25.8049C13.5817 25.748 14.2702 25.7694 14.9588 25.7224C15.4565 25.6885 15.9541 25.5991 16.3097 26.0249C15.6101 26.0656 14.9106 26.1069 14.211 26.1471C13.9587 26.1617 13.6037 26.2531 13.3593 26.1899C13.1622 26.1387 13.0541 25.9982 12.8612 25.9204C12.9078 26.0468 12.9346 26.1189 12.9692 26.2134C12.0001 26.3038 11.0467 26.3142 10.1264 26.5733C10.6403 26.7154 11.3378 26.5843 11.8548 26.5331C12.3672 26.4824 12.8779 26.4824 13.3892 26.4234C13.9168 26.3623 14.4444 26.3283 14.974 26.2975C15.329 26.2766 16.2053 26.0478 16.5006 26.2281C16.8362 26.4328 16.5892 27.0675 16.5614 27.4002C16.5116 27.9999 16.4953 28.6016 16.446 29.2013C16.4208 29.509 16.5478 30.3411 16.3663 30.6059C16.2221 30.8159 16.0401 30.7459 15.8194 30.8509C16.2651 31.076 16.4612 31.2437 15.9583 31.414C15.4444 31.5885 14.7606 31.5524 14.2278 31.5775C14.6567 31.9557 15.7313 31.6491 16.2583 31.6271C16.1555 31.9646 15.897 32.3078 15.8351 32.6379C15.7868 32.8959 15.8881 33.2887 15.9541 33.5468C16.1361 33.3326 16.1739 33.1973 16.2289 32.9189C16.252 32.9231 16.2745 32.9273 16.2976 32.9309C16.2688 33.1738 16.2394 33.4162 16.2116 33.6523C16.1408 33.6842 16.0768 33.7124 15.9442 33.7719C16.3301 33.9067 16.6453 34.0169 16.9605 34.1271C16.9552 34.1611 16.95 34.1945 16.9447 34.2285C16.8163 34.2483 16.1628 34.2624 16.1828 34.4912C16.2074 34.7733 16.6553 34.5764 16.8052 34.5555C17.0926 34.5158 17.5971 34.4651 17.884 34.4865C18.1456 34.5064 18.2935 34.6782 18.5363 34.7801C18.4099 34.3382 18.6575 34.3841 19.0356 34.3418C19.6155 34.2765 20.1924 34.2311 20.7619 34.1036C20.7577 34.0665 20.7535 34.03 20.7493 33.9929C20.0482 33.9746 19.3471 34.0378 18.6118 34.1172C18.6968 33.716 18.8966 33.4648 18.9464 33.0662C18.8069 33.0772 18.6915 33.0866 18.5159 33.1007C18.5914 32.2978 18.7623 31.4589 18.7508 30.6571C18.7424 30.0789 18.466 29.4933 19.2128 29.4479C19.9984 29.4003 20.7918 29.4191 21.5789 29.3789C22.2691 29.3439 23.1679 29.4327 23.7888 29.124C23.7804 29.0963 23.772 29.0686 23.7631 29.0409C23.3897 28.9537 23.3195 29.007 22.965 29.0869C22.5942 29.1705 22.1317 29.0979 21.7557 29.0979C21.2984 29.2802 20.7137 29.1799 20.226 29.1961C20.0115 29.2034 18.9579 29.392 18.8226 29.1475C18.4823 28.5332 20.6633 28.5891 20.9806 28.5656C22.0367 28.4872 23.094 28.4204 24.1496 28.3326C24.6541 28.2908 25.1481 28.2532 25.6546 28.2585C26.048 28.2621 26.5509 28.3776 26.8849 28.1587C26.4937 27.8542 25.6709 28.1279 25.1911 28.1435C24.5235 28.165 23.8627 28.107 23.1946 28.1566C22.5695 28.2031 21.9471 28.2428 21.3209 28.2673C20.9538 28.2814 20.5873 28.2966 20.2207 28.317C19.9758 28.3311 19.2605 28.5071 19.0529 28.3995C18.4325 28.0777 19.5594 28.0547 19.8237 28.0432C20.4168 28.0182 21.0157 28.0276 21.6062 27.9837C22.289 27.933 22.9655 27.908 23.6504 27.8839C24.2319 27.8636 25.0306 27.9623 25.5319 27.6567C25.1617 27.4713 24.5602 27.5491 24.136 27.5486C23.5549 27.5486 23.0006 27.6959 22.4122 27.676C21.3078 27.6384 20.0262 27.9973 18.9574 27.7361C19.1179 27.2759 19.5872 27.0215 20.0739 27.3485C20.3922 27.1578 20.9434 27.2456 21.312 27.2419C21.8317 27.2367 22.3488 27.2738 22.8679 27.2712C23.3661 27.2686 23.8648 27.2493 24.363 27.2435C24.7406 27.2393 25.2215 27.3407 25.5104 27.0837C24.9839 26.8852 24.3001 27.0064 23.7416 26.9594C23.2487 26.9181 22.7924 26.9975 22.2979 26.9787C21.2491 26.939 20.0623 27.1286 19.0219 26.9223C19.0235 26.8956 19.0251 26.869 19.0261 26.8423C19.6093 26.7682 20.1887 26.7243 20.7755 26.6903C20.9617 26.6794 21.9979 26.7619 21.6786 26.3294H22.536C22.6241 26.4433 22.6687 26.5007 22.7127 26.5577C22.7772 26.4908 22.8417 26.4234 22.9293 26.3325C22.9791 26.3398 23.0719 26.3534 23.1695 26.3675C23.1375 26.4286 23.1123 26.4756 23.0767 26.5436C23.4762 26.5749 23.6687 26.5509 24.0368 26.3957C24.2891 26.5843 24.7731 26.4501 25.1024 26.4579C25.5833 26.4694 26.0637 26.4271 26.5456 26.4203C27.5341 26.4067 28.4775 26.4302 29.4545 26.531C28.1986 26.402 31.0162 26.6052 29.9128 26.5739C30.0938 26.5791 30.3539 26.6015 30.5206 26.5524C30.8075 26.4678 30.98 26.3712 31.3172 26.355C32.3319 26.3059 33.3503 26.2777 34.3667 26.2589C36.2745 26.2244 38.1775 26.2113 40.0827 26.1523C42.1536 26.0881 44.2607 25.9225 46.3279 26.1544C46.3253 26.1758 46.3232 26.1978 46.3206 26.2192C45.1322 26.2933 43.9445 26.367 42.7562 26.4412C42.7556 26.4824 42.7546 26.5237 42.7541 26.565C43.5485 26.6245 44.3026 26.5018 45.0961 26.4955C45.5318 26.4918 46.4192 26.2636 46.4674 26.8653C45.8381 27.1819 44.7992 26.8873 44.1343 26.8418C43.3451 26.788 42.5128 26.8914 41.7231 26.9348C40.9412 26.9782 40.111 26.9776 39.3323 26.9238C38.6951 26.8794 37.5273 26.6543 36.9504 26.9698C38.5048 27.2404 40.2264 27.0868 41.8033 27.1385C42.6324 27.1657 43.4641 27.2816 44.2927 27.2446C44.9351 27.2158 45.8607 26.9463 46.4475 27.2205C46.3263 27.4629 46.513 27.4342 46.2435 27.581C46.04 27.6917 45.4569 27.5909 45.2287 27.5825C44.4694 27.5554 43.7279 27.5157 42.9685 27.5501C44.0729 28.0647 45.235 27.7126 46.3436 27.8949C46.7044 28.2908 47.3788 28.0678 47.8314 28.2642C47.792 28.3232 47.7616 28.3692 47.7123 28.4434C48.0784 28.4627 49.0228 28.6816 49.263 28.3974C48.961 28.2783 48.5913 28.3363 48.2693 28.3363C48.7423 28.2172 49.1891 28.1921 49.4397 27.7606C49.617 27.4556 49.4995 27.4321 49.9164 27.3741C50.2746 27.324 50.6558 27.3459 51.0172 27.3302C51.8164 27.2963 52.6166 27.2435 53.4169 27.2529C53.9072 27.2587 54.8537 27.4989 55.2602 27.1302C54.4174 26.8711 53.269 27.0309 52.4006 27.0743C51.4383 27.1223 50.497 27.1808 49.5383 27.0701L49.5399 26.9656C50.6637 26.7562 51.8531 26.6877 52.9958 26.613C53.581 26.5749 54.1678 26.5582 54.7536 26.5352C55.4101 26.5096 55.3456 26.6271 55.3325 27.2195C55.3163 27.956 55.2895 27.9372 54.5339 27.8928C53.9984 27.8615 53.4651 27.8547 52.9286 27.8656C52.2894 27.8787 51.6496 27.897 51.0103 27.9127C50.4671 27.9262 49.8294 27.8505 49.3296 28.0673C49.8871 28.4162 51.1462 28.0479 51.7849 28.0234C52.6822 27.9889 53.5931 28.0479 54.4898 28.0819C54.741 28.0913 55.3336 28.0459 55.3026 28.4606C55.2759 28.8179 54.9177 28.7171 54.677 28.7066C54.0042 28.6774 52.9339 28.5588 52.356 28.9051C52.3686 28.9474 52.3812 28.9898 52.3932 29.0321C53.1342 29.0321 53.8862 29.0566 54.6262 29.0827C55.2444 29.1047 55.203 29.3507 55.1584 29.8814C54.4258 29.8814 53.6728 29.7827 52.9538 29.7858C52.6853 29.7869 52.6339 29.8903 52.3791 29.9462C52.1887 29.9875 51.9176 29.9169 51.7115 29.9368C52.239 30.351 53.4976 30.1259 54.1264 30.0747C54.4431 30.0491 54.8742 29.9107 55.0525 30.2277C55.1663 30.4304 54.9775 31.0102 54.9324 31.2317C55.1904 31.4683 54.9298 32.2002 54.9051 32.5381C54.8669 33.0683 55.0378 33.5358 55.0389 34.0639C55.041 35.1332 56.33 35.0768 57.1438 34.8428C58.2063 34.5372 58.0757 33.8602 57.931 32.9847C57.8214 32.3213 57.985 32.244 58.5891 32.2231C59.1188 32.2049 59.6295 32.2132 60.1456 32.0826C60.1403 32.0476 60.1345 32.0132 60.1293 31.9782C59.639 31.9322 58.2635 32.2994 57.9341 31.9087C57.4286 31.3101 58.5215 31.4307 58.7564 31.425C59.5393 31.4062 60.3128 31.2359 61.1 31.226C61.7508 31.2176 62.4918 31.3581 63.1142 31.1664C62.5164 30.7182 61.3019 31.039 60.6186 31.0902C60.1545 31.1246 58.2598 31.5101 57.986 31.1246C57.5225 30.4722 59.4612 30.561 59.7428 30.5438C60.6097 30.4921 61.5195 30.5725 62.3722 30.4194C61.8682 30.141 60.7387 30.2246 60.1555 30.2413C59.6248 30.2565 58.6494 30.665 58.1591 30.3923C57.3415 29.9384 59.2876 29.871 59.5367 29.8563C60.2803 29.813 61.0816 29.8987 61.8053 29.7205C61.8011 29.6887 61.7969 29.6568 61.7927 29.6244C61.0811 29.4766 60.2337 29.5795 59.5136 29.6563C59.2457 29.685 57.9352 30.0486 58.0616 29.5873C58.1617 29.2206 59.7082 29.2358 60.0454 29.217C60.7172 29.1799 61.3921 29.2086 62.057 29.1031C62.0549 29.0686 62.0534 29.0347 62.0513 29.0002C60.7864 28.7881 59.3322 29.136 58.0406 29.136C58.2283 28.317 58.6405 28.4852 59.413 28.4423C60.2426 28.3964 61.1377 28.4319 61.9548 28.3253C61.6186 27.967 60.7838 28.1367 60.3228 28.1655C60.0029 28.1853 58.5985 28.4862 58.3835 28.2673C57.9152 27.7894 59.2787 27.8333 59.5351 27.8192C60.1823 27.7826 60.9542 27.8578 61.5782 27.687C61.5782 27.6598 61.5777 27.6332 61.5772 27.606C60.8037 27.5277 60.0769 27.5851 59.3018 27.6076C59.0406 27.6154 57.8287 27.6285 58.4716 27.1683C58.8838 26.8732 60.0134 27.08 60.5048 27.0764C61.0371 27.0722 61.8273 26.9338 62.1252 27.5089C62.0397 27.5575 61.95 27.6081 61.8604 27.6588C61.8688 27.6854 61.8766 27.7121 61.885 27.7382C62.4865 27.5689 62.7162 28.1404 63.0041 28.539C63.323 28.9804 63.7 29.393 64.044 29.8166C64.8479 30.8049 65.783 31.67 66.4857 32.7293C67.0242 33.5421 67.4464 34.4813 68.1847 35.1201C68.501 35.3933 68.7495 35.794 69.0883 36.0275C69.3841 36.2307 69.3316 36.0854 69.5702 36.4135C69.7711 36.6893 69.9242 37.0163 70.0967 37.3104C69.2252 37.5225 68.286 37.4101 67.3908 37.4243C66.492 37.4384 65.5942 37.4995 64.6953 37.5188C63.7068 37.5397 62.7167 37.5298 61.7282 37.536C61.1073 37.5402 59.8676 37.2931 59.3757 37.6802C59.8099 38.1096 61.3108 37.7972 61.9191 37.8134C62.873 37.839 63.8243 37.8009 64.7756 37.8249C65.698 37.8479 66.612 37.6624 67.5403 37.6541C68.0715 37.6494 68.6011 37.6671 69.1324 37.675C69.2802 37.6771 69.7936 37.5924 69.92 37.7142C70.0663 37.8552 69.9761 38.0276 69.9546 38.2125C69.9048 38.6372 69.9347 38.8257 69.4811 38.8821C68.6142 38.9903 67.7217 38.8613 66.8601 39.0049C65.9382 39.1585 65.042 39.1438 64.1101 39.1449C63.2695 39.1454 62.2977 39.0227 61.4797 39.2029C61.4797 39.229 61.4797 39.2551 61.4797 39.2812C61.5929 39.3147 61.7057 39.3481 61.8824 39.4003C59.6112 39.4003 57.3358 39.0911 55.0667 39.1532C54.0042 39.1825 52.9407 39.2598 51.8793 39.2452C50.9018 39.2316 49.5048 38.973 48.6044 39.3732C48.6133 39.4129 48.6217 39.4531 48.6306 39.4928C50.7072 39.4928 52.7729 39.4264 54.8485 39.369C56.8748 39.3131 58.9079 39.5774 60.9343 39.6343C62.0434 39.6657 63.152 39.6939 64.2606 39.7482C64.7221 39.7707 65.1725 39.7754 65.6319 39.7681C65.9801 39.7623 66.4044 39.8934 66.7431 39.7874C66.8994 39.7383 66.9912 39.614 67.1354 39.5711C67.3829 39.497 67.739 39.5403 67.9928 39.5335C68.4789 39.521 68.9614 39.5189 69.447 39.487C70.2855 39.4322 71.3464 39.1172 72.0392 39.6746C72.1692 39.5095 72.2993 39.347 72.4356 39.1867C71.8913 38.7698 70.6358 38.2955 70.7958 37.4352L70.7926 37.4446ZM8.59614 0.499367C8.88142 0.953817 8.66379 1.17739 8.29251 0.754799C8.41994 0.647716 8.50804 0.573542 8.59614 0.499367ZM7.6606 1.9839C7.95112 1.68564 8.8531 2.0842 8.97896 2.41485C8.64229 2.49164 8.12575 2.12494 7.81635 1.98495C7.79694 2.02517 7.77701 2.06487 7.75761 2.10509C8.14253 2.32866 8.53007 2.52141 8.84996 2.83273C8.45822 2.95392 7.03655 2.62484 7.6606 1.98443V1.9839ZM23.0735 9.29899C22.5737 9.36324 22.2743 9.45831 21.8286 9.19661C21.6597 9.35749 21.4977 9.08848 21.2811 9.05505C21.3482 9.02266 21.4153 8.99028 21.4683 8.96468C21.2313 8.58545 20.9192 8.84088 20.6733 8.77089C20.7011 8.69306 20.7252 8.62776 20.7488 8.56194C19.8127 8.63925 18.7844 7.9978 17.9144 7.63267C16.8105 7.16986 15.7077 6.70497 14.609 6.23014C14.6153 6.20507 14.6221 6.17947 14.6284 6.1544C14.7275 6.16433 14.8266 6.17425 14.9252 6.18418C14.9368 6.16119 14.9483 6.13821 14.9598 6.11522C14.6263 5.96008 14.4575 5.74592 14.2309 6.06247C14.1014 6.01232 13.9121 5.93867 13.6661 5.84308C13.7831 5.80547 13.8476 5.7851 13.9152 5.76316C13.7165 5.52131 13.6394 5.51034 13.4805 5.6613C11.7825 4.91589 10.0991 4.17676 8.41574 3.43762C8.42833 3.40733 8.44092 3.37703 8.4535 3.34673C9.53746 3.54053 10.4761 4.13706 11.4925 4.5189L11.5444 4.45361C11.0887 4.00543 10.5994 3.97565 10.0356 3.77089C9.87937 3.71395 9.30409 3.43449 9.2333 3.28875C9.09328 2.99989 9.46037 2.67133 9.62503 2.43627C9.59724 2.36836 9.56053 2.27956 9.52382 2.19076C9.54008 2.17404 9.55686 2.15733 9.57312 2.14009C10.4284 2.58305 11.2617 2.94974 12.1663 3.28092C11.9718 3.65545 12.374 3.64657 12.7038 3.77768C13.1711 3.96311 13.6383 4.14698 14.1066 4.32824C15.0815 4.70486 16.0695 5.08409 17.004 5.55265C17.3963 5.74958 17.8042 5.85405 18.2038 6.03426C18.6942 6.25522 19.1583 6.54199 19.6575 6.74258C20.4703 7.06905 21.3629 7.29314 22.1054 7.77162C21.709 8.07145 21.6744 7.95392 21.2271 7.73662C20.84 7.54857 20.4058 7.21165 20.0309 7.05912C19.8914 7.00219 19.7844 7.07584 19.657 7.03248C19.4902 6.97555 19.3497 6.80891 19.1934 6.71855C18.7466 6.45998 18.2343 6.30066 17.7738 6.0656C16.8986 5.61899 15.9489 5.30035 15.0458 4.8997C14.1292 4.49331 13.0174 3.84088 12.0132 3.73432C11.998 3.76462 11.9823 3.79439 11.967 3.82469C13.2261 4.59047 14.7155 5.07156 16.0684 5.67279C16.7895 5.99352 17.5116 6.3132 18.2332 6.63236C18.8725 6.91548 19.679 7.12442 20.2034 7.58514C19.9229 7.62379 19.6565 7.39709 19.4934 7.7011C20.6958 8.21771 21.8915 8.73119 23.0871 9.24466C23.0824 9.26295 23.0782 9.28071 23.0735 9.29899ZM20.2165 7.74863C20.2328 7.69535 20.249 7.64155 20.2653 7.58827C20.8893 7.68752 21.4908 8.02966 22.0719 8.27517C22.7867 8.57709 23.5544 8.81947 24.2471 9.16527C24.5009 9.29168 24.6992 9.49801 24.9624 9.60405C25.2178 9.70695 25.5083 9.72419 25.7711 9.81769C26.3269 10.0162 27.1728 10.2622 27.5231 10.7652C25.0421 9.8553 22.676 8.69306 20.2165 7.74863ZM23.9063 8.57918C23.8874 8.61209 23.8685 8.645 23.8502 8.67791C23.9561 8.75417 24.0615 8.82991 24.1674 8.90618C23.5434 8.52642 22.7258 8.48829 22.1448 8.01556C22.5507 7.55745 23.9577 8.32323 24.4401 8.52068C25.2488 8.85185 26.2189 9.1543 26.941 9.64113C26.8251 9.6636 26.769 9.67456 26.6788 9.6918C26.9127 10.001 27.306 9.96865 27.5493 10.2016C26.3002 9.74247 25.0511 9.28541 23.9068 8.57918H23.9063ZM18.476 15.6143C18.507 15.0789 19.088 15.6634 19.1876 15.7501C19.024 15.8284 18.4535 16.005 18.476 15.6143ZM18.2851 16.3628C18.1745 16.5049 17.9374 16.6062 18.1462 16.8857C17.4849 16.834 17.7408 16.3921 18.2851 16.3628ZM18.9433 21.2395C18.4765 21.1983 18.2919 21.0854 17.9925 20.7459C17.5352 20.2277 17.6139 19.9404 17.8027 19.2849C18.2689 19.1062 18.7623 18.9177 19.2936 18.7145C19.1729 19.5811 19.0602 20.3954 18.9427 21.239L18.9433 21.2395ZM18.369 18.447C18.6779 18.3274 18.9868 18.2073 19.2957 18.0876C19.1048 18.4402 18.9821 18.4836 18.369 18.447ZM18.4183 18.0803C18.6118 18.0208 18.8059 17.9607 18.9994 17.9012C18.8226 18.0035 18.6706 18.165 18.4535 18.1697L18.4178 18.0803H18.4183ZM19.0293 17.8871C19.1656 17.7706 19.3109 17.6671 19.4666 17.5778C19.4593 17.5517 19.4519 17.5251 19.4446 17.4989C19.1163 17.5141 18.5395 17.944 18.2558 17.8411C17.9044 17.7136 18.1079 17.5559 18.3968 17.4222C18.5877 17.3339 19.3046 17.0142 19.4792 17.1871C19.8201 17.5251 19.2631 17.8197 19.0298 17.8871H19.0293ZM23.7778 15.9653C23.3 16.0087 22.9602 16.5195 22.3986 16.3989C22.5035 16.1915 23.4768 15.8927 23.7778 15.9653ZM22.6923 16.5676C22.7122 16.7368 22.7242 16.8403 22.7363 16.9426C22.6015 16.8883 22.4657 16.8335 22.2539 16.7478C22.4348 16.6736 22.5633 16.6203 22.6923 16.5676ZM22.2014 16.3592C22.2334 16.8371 22.0058 16.8956 21.6156 17.0576C21.0876 17.2764 21.0781 17.2174 20.5605 17.0377C20.549 17.1338 20.5369 17.2299 20.5165 17.4007C20.4111 17.4472 20.2401 17.5219 20.0697 17.5972C20.055 17.5663 20.0403 17.536 20.0256 17.5052C20.2359 17.4091 20.3167 17.3851 20.4064 17.1772C20.2642 17.1772 20.1221 17.1746 19.9805 17.1678C20.215 16.5545 21.5926 16.4391 22.2014 16.3592ZM20.0041 17.9236C20.4824 17.5376 21.1064 17.5125 21.6676 17.2942C21.6115 17.4561 20.6208 17.8552 20.0041 17.9236ZM21.8632 17.3516C21.8558 17.3245 21.8485 17.2978 21.8411 17.2707C22.1395 17.1625 22.4384 17.0539 22.7368 16.9458C22.7368 16.9468 22.7368 16.9473 22.7368 16.9484C22.8748 16.916 23.0121 16.8836 23.1501 16.8512C23.1836 16.9029 23.2172 16.9541 23.2508 17.0058C22.8129 17.184 22.3236 17.2503 21.8626 17.3516H21.8632ZM28.9563 16.0108C28.9474 15.9768 28.9385 15.9423 28.9296 15.9084C29.7241 15.7036 30.5185 15.4983 31.313 15.2936C31.3209 15.3249 31.3293 15.3568 31.3371 15.3881C30.5432 15.5955 29.7498 15.8034 28.9558 16.0108H28.9563ZM31.1536 15.0339C31.1546 15.011 31.1562 14.9875 31.1573 14.9645C30.5065 15.1729 29.8531 15.3745 29.2049 15.5908C28.6443 15.7778 28.4597 15.9554 27.9988 15.5485C28.0024 15.5156 28.0066 15.4826 28.0103 15.4492C28.2977 15.3907 28.585 15.3322 28.8724 15.2737L28.8677 15.2774C29.6459 15.0418 30.4163 14.9295 31.2024 14.7346C31.7934 14.5879 32.4468 14.1538 32.8626 14.7299C32.2837 14.9227 31.7682 15.1102 31.1536 15.0339ZM30.9501 14.5387C30.2474 14.6996 29.5363 14.9169 28.821 15.0073C28.9453 14.462 27.6369 15.1786 27.435 15.3129C27.0679 15.3129 26.7239 15.2121 26.4837 15.5025C26.1707 15.4477 26.1539 15.4194 25.9929 15.6874C25.9504 15.6378 25.8974 15.5762 25.7962 15.4586C25.3248 15.829 25.0815 16.0766 25.9032 15.9026C26.3851 15.8008 27.4434 15.3636 27.8865 15.5673C27.5672 16.0092 27.0234 16.0019 26.5367 16.1257C26.2719 16.1931 25.6908 16.554 25.5277 16.1607C24.9635 16.2145 24.5377 16.2516 24.04 16.5326C23.7647 16.2552 23.471 16.6459 23.1197 16.5436C23.6708 16.1314 25.0804 16.4762 25.2094 15.6733C24.792 15.7532 24.3892 15.83 23.987 15.9073C23.9797 15.8734 23.9723 15.8394 23.965 15.8055C26.9064 15.059 29.8473 14.3126 32.7887 13.5666C32.8008 13.6037 32.8134 13.6403 32.8254 13.6774L31.3434 14.123C31.3513 14.1564 31.3592 14.1893 31.3665 14.2227C31.742 14.37 32.4914 14.0153 32.8417 13.9098C32.8569 13.937 32.8716 13.9642 32.8868 13.9913C32.3503 14.3439 31.5742 14.3967 30.9507 14.5393L30.9501 14.5387ZM33.1584 14.7331C33.0808 14.4677 33.1102 14.1757 33.4673 14.1444C33.4332 14.4896 33.4558 14.5649 33.1584 14.7331ZM33.2837 13.9626C33.2586 13.9187 33.2334 13.8743 33.2082 13.8304C33.3142 13.7667 33.4201 13.7035 33.526 13.6398C33.6157 13.8304 33.4416 13.856 33.2843 13.9626H33.2837ZM58.7768 18.938C59.1067 18.7965 59.5383 19.4181 59.758 18.913C60.1419 19.112 59.9683 19.8814 59.4832 19.393C59.2168 19.4625 58.1428 19.2102 58.7768 18.938ZM58.6211 19.5173C58.7905 19.6699 59.2032 19.5518 59.0663 20.0496C59.2404 19.9561 59.3626 19.8903 59.4759 19.8297C59.4963 19.895 59.5189 19.966 59.5409 20.0371C59.6416 20.0031 59.7418 19.9697 59.8147 19.9451C59.8938 20.0825 59.9751 20.2225 60.0564 20.363C60.0454 20.3808 60.0344 20.3986 60.0228 20.4163C59.5304 20.2659 58.233 20.1964 58.6211 19.5179V19.5173ZM58.1827 18.7072C58.2692 19.0096 58.3007 19.019 58.0049 19.1235C57.9818 19.089 57.9588 19.0545 57.9357 19.0201C58.018 18.9156 58.1004 18.8116 58.1827 18.7072ZM55.7395 22.0283C55.7211 22.0262 55.7028 22.0246 55.6844 22.0226V21.3163C55.7201 21.3184 55.7557 21.321 55.7914 21.3231C55.7741 21.5582 55.7568 21.7932 55.7395 22.0283ZM56.9052 17.3109C57.2052 16.6099 57.7925 17.4838 57.7883 17.8902C57.6022 18.3603 56.6551 17.8959 56.9052 17.3109ZM57.4427 18.9224C57.3961 18.8628 57.3494 18.8027 57.2844 18.7192C57.3704 18.6137 57.4375 18.5311 57.5046 18.4491C57.642 18.6857 57.6069 18.6988 57.4427 18.9224ZM57.5754 19.3784C57.4721 19.4865 57.4018 19.5602 57.3311 19.6333C57.1611 19.4437 57.234 19.4144 57.3688 19.1982C57.4228 19.2452 57.4763 19.2917 57.5754 19.3779V19.3784ZM56.8617 18.9553C56.9446 19.0336 57.0274 19.112 57.1103 19.1903C57.1008 19.2185 57.0919 19.2468 57.0825 19.275C56.8628 19.1371 56.8271 19.6652 56.5266 19.3528C56.6394 19.2185 56.7505 19.0869 56.8612 18.9553H56.8617ZM56.6939 19.743C56.8947 19.7545 57.6814 19.9232 57.7799 20.1019C57.9221 20.3599 57.7432 21.0708 57.7228 21.3602C57.6861 21.8805 57.7584 22.5778 57.6163 23.072C57.5093 23.4434 57.4616 23.4256 57.0432 23.3426C56.8491 23.3039 55.9408 23.1843 56.0531 22.8453C56.1071 22.4117 56.1758 21.9792 56.2177 21.5446C56.2576 21.1309 56.1805 20.7193 56.2193 20.3108C56.2576 19.9054 56.2964 19.72 56.6939 19.743ZM56.2723 18.0192C56.4443 18.2621 56.3866 18.2887 56.2308 18.5463C56.17 18.4789 56.1097 18.4115 56.0132 18.3044C56.1176 18.1895 56.1952 18.1044 56.2723 18.0192ZM55.8381 17.8683C55.7437 18.0579 55.6524 18.2423 55.5627 18.423C55.3178 18.2141 55.4993 17.5527 55.8381 17.8683ZM48.5797 5.69734C48.6316 5.83733 48.6835 5.97785 48.7349 6.11784C48.704 6.12881 48.6725 6.13978 48.6416 6.15127C48.5052 6.04105 48.4649 5.89636 48.5797 5.69786V5.69734ZM48.1801 6.63184C48.5425 6.59318 48.6904 6.87107 49.0344 6.95935C49.0543 6.9395 49.0742 6.91913 49.0947 6.89928C49.2683 7.32605 49.3086 7.70998 48.7056 7.67133C48.4402 7.65409 47.8041 7.3109 47.6971 7.06644C47.5849 6.81048 47.8592 6.66579 48.1806 6.63131L48.1801 6.63184ZM48.4948 8.08033C48.2037 8.23025 48.0925 8.19368 47.9378 7.93355C48.1062 7.97795 48.2803 8.02392 48.4948 8.08033ZM45.1433 9.69232C44.1988 10.2664 42.9502 10.5427 41.9029 10.8953C41.8888 10.864 41.8751 10.8321 41.861 10.8008C42.3781 10.5422 42.8852 10.2977 43.4326 10.1086C43.7562 9.99686 44.8706 9.50166 45.1433 9.69232ZM44.945 9.19504C42.9963 9.93783 41.0277 10.6879 39.0397 11.4459C39.0397 11.1643 39.1356 11.0259 39.0848 10.7214C39.0224 10.3474 39.0056 9.9791 38.9458 9.60248C40.9307 9.26556 42.947 9.18721 44.9456 9.19504H44.945ZM40.1582 11.8298C39.8577 11.9761 39.5573 12.1223 39.2568 12.2686L39.2138 12.1871C39.5101 12.0309 39.8058 11.8753 40.1021 11.7191L40.1588 11.8293L40.1582 11.8298ZM39.1262 13.3702C39.1875 13.6137 39.1676 13.6408 39.0072 13.8367C38.9862 13.8257 38.9657 13.8148 38.9447 13.8033C38.9364 13.6298 38.9967 13.4857 39.1262 13.3697V13.3702ZM39.9406 5.34632L39.9983 5.38967C39.756 5.84151 38.3899 5.9862 37.8959 6.12567C37.8833 6.09015 37.8702 6.05463 37.8576 6.01911C38.552 5.79502 39.2463 5.57093 39.9406 5.34632ZM37.8597 5.60593C38.3453 5.33953 38.9128 5.34997 39.4366 5.22983C38.9212 5.39176 38.4062 5.55369 37.8907 5.7151C37.8802 5.67853 37.8697 5.64197 37.8592 5.6054L37.8597 5.60593ZM39.8934 4.73516C39.7371 4.88925 39.0706 4.88978 38.8551 4.92268C38.2336 5.01723 37.5739 5.13581 37.3595 5.8133C37.1397 6.50856 37.4271 6.85279 38.1765 6.81832C38.5389 6.8016 38.7769 6.58273 39.1073 6.46729C39.4487 6.34872 39.8908 6.20716 40.2437 6.14761C40.1698 6.66161 40.1629 7.17979 39.8562 7.61491C39.5295 8.07824 39.0255 8.3974 38.6957 8.84767C38.5892 8.99289 38.4759 9.20079 38.4319 9.37996C38.3485 9.71896 38.4224 9.58106 38.4843 9.94932C38.5771 10.4978 38.3039 10.3777 37.8912 10.3777C37.8912 10.409 37.8902 10.4403 37.8902 10.4717C38.0632 10.5062 38.2363 10.5401 38.4618 10.585V11.5921C37.8451 11.6809 36.4695 11.8648 36.2535 11.0348C35.9808 9.9885 37.2541 10.7856 37.6752 10.4074C37.2797 10.315 35.8665 10.1865 36.2451 9.51368C36.3951 9.57166 36.5639 9.57375 36.7228 9.59151C36.737 9.14542 36.468 8.5703 36.619 8.14406C36.1517 7.73871 36.3085 6.79115 36.2692 6.25208C36.2183 5.55683 36.1428 4.59621 36.3374 3.92342C36.4905 4.33085 36.8796 4.19243 37.0338 3.92133C37.919 3.80484 38.8173 3.71134 39.7072 3.71134C39.6448 3.81477 39.6128 3.867 39.5331 3.99864C39.7466 3.94483 39.8929 3.90774 40.0932 3.85708C40.0549 4.06027 40.0381 4.59203 39.8939 4.73464L39.8934 4.73516ZM35.8051 7.58984C35.6436 7.52089 35.4968 7.4582 35.3599 7.39918C35.3279 6.7478 34.8056 3.31174 35.8528 3.49352C35.7443 3.67791 35.6578 3.73328 35.4679 3.83827C35.4758 3.86021 35.4831 3.88267 35.491 3.90461C36.2572 3.99184 35.8229 5.43721 35.8261 5.94441C35.8298 6.50908 35.9373 7.01524 35.8051 7.58932V7.58984ZM36.1281 3.41882C35.9462 3.26263 35.7805 3.12055 35.5859 2.9534C35.6006 2.89698 35.6237 2.80975 35.6362 2.76169C36.5875 2.76169 37.5325 2.76013 38.4827 2.71834C38.8844 2.70058 39.2578 2.62118 39.6364 2.58984C40.0455 2.55589 40.0832 2.68647 40.0492 3.03489C40.0198 3.33576 40.0649 3.3133 39.7822 3.41098C39.3333 3.5656 38.6721 3.47001 38.1933 3.49613C37.8435 3.51546 37.1334 3.70194 36.8125 3.55829C36.5545 3.44285 36.5 2.9487 36.1287 3.41882H36.1281ZM36.2682 12.0231C36.3248 12.0701 36.3825 12.1176 36.4653 12.1866C36.4381 11.7003 37.4371 11.9233 37.7402 11.9531C38.1697 11.9954 38.8614 12.3083 38.4623 12.8923C37.9819 13.5959 35.5135 12.7706 36.2676 12.0231H36.2682ZM36.8324 17.4556C36.8324 17.4133 36.8324 17.3704 36.8324 17.3281C37.2404 17.2148 37.7517 16.963 38.1345 17.2717C38.457 17.5324 38.3758 17.8594 38.1901 18.1655C38.543 18.1864 38.9668 18.3493 38.4534 18.5672C38.1303 18.704 37.4292 18.7072 37.1277 18.5515C37.403 18.2161 37.8498 18.1571 38.2226 17.9299C37.7077 17.7544 37.2703 17.605 36.833 17.4561L36.8324 17.4556ZM37.7989 16.2025C38.1691 16.3106 38.4036 16.5148 37.9851 16.7567C37.4051 17.092 36.4685 16.7844 36.1439 16.2578C36.2199 16.2296 36.2954 16.2009 36.3715 16.1727C36.3751 16.1857 36.3788 16.1988 36.382 16.2119C36.845 16.1789 37.3448 16.0703 37.7989 16.2025ZM36.9279 14.824C37.4171 14.859 37.1534 15.9643 36.7721 15.854C36.3725 15.7381 36.6887 14.9786 36.9279 14.824ZM37.3484 15.7444C37.3642 15.5788 37.3296 14.6364 37.6841 14.8966C37.9945 15.1248 37.6605 15.6822 37.4324 15.7971C37.4046 15.7793 37.3762 15.7616 37.3484 15.7438V15.7444ZM38.0679 14.989C38.2006 14.6453 38.2184 14.7132 38.5399 14.6171C38.5168 14.7806 38.4817 15.9872 38.0297 15.6059C37.8949 15.4921 38.0197 15.1139 38.0679 14.989ZM36.8723 13.8388C36.835 13.7098 36.7648 13.6069 36.6615 13.5311C36.6625 13.5076 36.663 13.4836 36.6641 13.4601C36.9966 13.4376 37.8912 13.2464 38.1807 13.4883C38.2121 13.5149 38.3789 14.1245 38.3564 14.16C38.2562 14.3194 38.1786 14.2368 38.0454 14.2593C37.8288 14.2948 37.5467 14.2656 37.3107 14.3016C37.1188 14.3309 36.9635 14.3575 36.7653 14.3105C36.3133 14.2034 36.1103 13.9401 36.0306 13.5045C36.3342 13.692 36.5183 13.8435 36.8728 13.8393L36.8723 13.8388ZM36.017 14.8569C36.0925 14.7576 36.2566 14.7069 36.3772 14.8088C36.5713 14.9734 36.3563 15.6206 36.3227 15.8331C36.1072 15.8431 36.05 15.8405 35.9645 15.6723C35.9252 15.595 35.9755 14.9117 36.0175 14.8569H36.017ZM35.5628 12.3031C34.2801 11.7473 32.9806 11.1873 31.6334 10.8034C30.3701 10.4435 29.0061 10.1363 27.8698 9.45152C29.7351 9.45152 31.6408 9.49905 33.4694 9.51054C33.9754 9.51368 34.4852 9.60561 34.9897 9.64218C35.3132 9.66568 35.5466 9.57323 35.6499 9.85843C35.7055 10.011 35.6247 10.4732 35.6242 10.6399C35.6231 10.993 35.7128 10.8953 35.739 11.1957C35.7705 11.5571 35.6819 11.9641 35.5634 12.3036L35.5628 12.3031ZM34.6257 13.3337C34.8255 13.4167 35.0038 13.4904 35.1821 13.564C35.1721 13.5933 35.1622 13.622 35.1522 13.6513C34.772 13.6972 34.5318 13.7803 34.6257 13.3337ZM35.5287 14.2593C35.168 14.3262 35.0683 14.2974 34.847 13.9992C35.1223 14.1041 35.3337 14.1846 35.5287 14.2593ZM33.9492 15.4649C33.2004 15.2382 34.2712 14.8396 33.654 14.5967C33.6975 14.2081 33.7279 13.8142 34.2209 13.598C33.9969 13.4935 33.8527 13.4261 33.708 13.3587C33.7049 13.3478 33.7017 13.3368 33.6986 13.3258C33.8811 13.3467 34.0641 13.3681 34.2544 13.3901C34.1548 14.0697 34.0541 14.755 33.9497 15.4649H33.9492ZM34.6231 14.602C34.5434 14.8396 34.4327 15.5735 34.1737 15.5735C34.2099 15.2622 34.1459 13.7678 34.6629 13.903C34.4207 14.2363 34.4154 14.2462 34.6231 14.602ZM34.8643 15.7161C34.7301 15.42 34.7264 15.1274 34.8953 14.7853C35.3043 15.1421 34.8229 15.4231 34.8643 15.7161ZM35.4139 15.7684C35.0316 15.5547 35.4737 14.9342 35.6971 14.7686C35.7375 14.7853 35.7773 14.802 35.8177 14.8182C35.7951 14.9937 35.8072 15.9883 35.4139 15.7679V15.7684ZM32.2821 20.4832C31.9549 20.5448 31.3309 20.6404 31.108 20.2711C30.8935 19.9154 31.3282 19.9342 31.6555 19.8522C31.7346 20.151 31.8789 20.4884 32.2365 20.293C32.634 20.0757 32.3645 19.685 31.9806 19.7999C32.2486 19.521 32.8642 19.556 32.9733 19.988C33.0792 20.408 32.6293 20.4179 32.2821 20.4832ZM37.8828 20.4038H37.0826L37.081 20.3474C37.3495 20.3343 37.618 20.3207 37.8865 20.3077C37.8854 20.3395 37.8839 20.3714 37.8828 20.4038ZM43.8868 20.7391C43.4452 20.7945 43.0498 20.597 42.8998 20.1907C43.4221 20.0031 43.7069 20.2591 43.8868 20.7391ZM41.6628 18.1435C42.5013 18.1592 42.7829 18.7448 43.107 19.4583C42.4903 19.7696 41.7755 19.6881 41.1085 19.7263C40.3156 19.7717 39.5247 19.7848 38.7313 19.8156C37.2326 19.8741 35.7333 20.0433 34.2345 20.1264C33.9629 19.4432 33.2596 19.3235 32.7709 18.8748C32.9948 18.6622 33.2318 18.4371 33.4683 18.2125C34.0782 17.9618 34.493 17.8787 35.1774 18.0412C35.7385 18.1744 35.7521 18.6638 36.1926 18.9595C36.6977 19.2985 37.3165 19.1094 37.8708 19.0342C38.1765 18.9924 38.6873 18.983 38.9259 18.7662C39.1834 18.5322 39.1131 18.5619 38.9584 18.2329C39.8625 18.2329 40.7634 18.1263 41.6628 18.143V18.1435ZM38.6144 15.5814C38.714 15.1034 38.6972 14.5894 39.1136 14.3042C39.293 14.8391 39.4193 15.7825 38.6144 15.5814ZM39.7555 14.6328C39.7345 14.9404 39.8289 15.3552 39.4246 15.4372C39.4246 14.9007 39.3674 14.3371 39.4456 13.8054C39.4765 13.5954 39.6149 13.0495 39.8709 13.399C40.0308 13.6168 39.7738 14.3664 39.7555 14.6333V14.6328ZM40.0638 15.2089C39.8945 14.603 40.046 14.0221 40.0932 13.4366C40.1252 13.4287 40.1572 13.4204 40.1886 13.4125C40.3974 13.9783 40.2878 14.6432 40.0638 15.2089ZM40.5043 13.9218C40.5279 13.9203 40.551 13.9187 40.5746 13.9177C40.7487 14.1694 40.9989 14.8402 40.584 15.059C40.1661 15.2795 40.4823 14.0864 40.5043 13.9224V13.9218ZM46.1318 16.8C45.8245 16.7138 45.5166 16.6282 45.2093 16.542C45.2203 16.5185 45.2314 16.4945 45.2424 16.4709C45.5481 16.5493 45.8544 16.6277 46.1601 16.706C46.1507 16.7374 46.1412 16.7682 46.1323 16.7995L46.1318 16.8ZM47.1832 16.8053C46.9651 16.7426 46.7464 16.6794 46.5282 16.6167C46.5324 16.6 46.5371 16.5827 46.5413 16.566C46.7616 16.6214 46.9824 16.6762 47.2026 16.7316C47.1958 16.7562 47.1895 16.7807 47.1827 16.8053H47.1832ZM47.5571 16.9594C47.7648 16.7932 47.9263 16.7943 48.0385 17.0696C47.8571 17.0278 47.7071 16.9938 47.5571 16.9594ZM54.451 18.6685C53.4347 18.3509 52.4 18.1059 51.3533 17.91C50.3601 17.7241 49.2646 17.5418 48.3762 17.045C49.4796 17.1181 50.4812 17.5073 51.5673 17.5804C52.1148 17.6175 52.658 17.8416 53.1851 17.9821C53.7158 18.1237 54.1516 18.166 54.5165 18.5823C54.4945 18.611 54.4725 18.6398 54.4505 18.668L54.451 18.6685ZM54.8097 18.7542V18.4324C54.8553 18.4272 54.9015 18.422 54.9471 18.4167C54.999 18.6565 55.0488 18.6894 54.8097 18.7542ZM52.9774 17.0957C53.709 17.2801 54.44 17.4645 55.1925 17.6546C55.1605 17.8453 55.1306 18.0276 55.0992 18.2167C54.8097 18.212 54.7987 17.9121 54.7122 17.6933C54.526 17.9022 54.5055 18.0218 54.2496 18.0641C53.9229 18.119 53.2412 17.7857 52.9082 17.6943C52.1394 17.4838 51.3837 17.184 50.6176 16.9996C50.5295 16.9061 50.4408 16.8115 50.3076 16.67C51.6585 16.8789 52.9313 17.2942 54.2402 17.6807C54.2517 17.6468 54.2627 17.6133 54.2743 17.5794C53.8369 17.4321 53.4001 17.2848 52.9627 17.138C52.9674 17.1239 52.9727 17.1098 52.9774 17.0957ZM49.7969 16.2223C50.4555 16.3665 51.1147 16.5112 51.7734 16.6553C51.7681 16.6846 51.7629 16.7144 51.7582 16.7436C51.0979 16.5989 50.4377 16.4548 49.7775 16.3101C49.7838 16.2808 49.7906 16.2516 49.7969 16.2218V16.2223ZM44.4175 14.9519C45.5166 15.1969 46.5628 15.5109 47.6269 15.8796C48.6138 16.2218 49.6044 16.7582 50.616 17.0022C50.6244 17.0419 50.6328 17.0816 50.6459 17.1437C50.0559 17.0873 49.574 16.7457 49.0097 16.6115C49.0359 16.6877 49.0627 16.7645 49.0957 16.8611C48.2666 16.6141 47.4349 16.3832 46.6001 16.157C46.0133 15.9982 44.751 15.8734 44.5328 15.2737C44.3577 15.2356 44.417 15.1201 44.417 14.9519H44.4175ZM41.3502 14.2055C42.1206 14.1637 43.4132 14.5226 43.9911 15.0162C43.7814 15.036 43.5721 15.0554 43.3634 15.0857C43.4819 15.1677 43.5391 15.2074 43.5963 15.2471C43.5921 15.2596 43.5884 15.2716 43.5842 15.2842C43.0918 15.1651 42.5978 15.0162 42.0991 14.9253C41.71 14.8543 41.2946 14.9718 41.0943 14.591C41.5369 14.4055 42.1143 14.7205 42.5862 14.7822C42.2286 14.3538 41.7131 14.4766 41.3497 14.205L41.3502 14.2055ZM42.6403 15.4111C43.4059 15.5109 44.1317 15.7746 44.8868 15.9475C44.8853 15.9705 44.8837 15.994 44.8821 16.017C44.5119 16.0384 44.1448 15.9173 43.7788 15.8655C43.3812 15.8096 42.9848 15.8363 42.5868 15.794C41.8626 15.7172 41.1441 15.5375 40.433 15.3881C40.8908 14.8684 42.0676 15.3369 42.6397 15.4111H42.6403ZM44.934 10.3489C44.6068 10.4842 44.0766 10.5965 43.8223 10.8441C43.581 11.0792 43.6424 11.1743 43.2952 11.297C42.989 11.4051 42.5275 11.5587 42.1924 11.472V11.7483C41.893 11.6585 41.6926 11.7692 41.6245 11.9949C41.3544 12.0602 41.131 12.114 40.9076 12.1678C40.8919 12.1975 40.8767 12.2268 40.8609 12.2566C40.9144 12.2879 40.9679 12.3187 41.0398 12.361C40.7912 12.3898 40.6391 12.3172 40.3764 12.3772C39.9909 12.465 39.5997 12.6212 39.2201 12.7351C39.1912 12.6886 39.1618 12.6421 39.133 12.5956C40.293 12.1406 41.4268 11.5608 42.5768 11.0708C43.1689 10.8185 43.7588 10.5506 44.3603 10.3207C44.6849 10.1964 45.1254 10.1405 45.4207 9.96238C45.567 9.87358 45.6939 9.71635 45.8565 9.61972C45.8701 9.64218 45.8837 9.66464 45.8974 9.6871C45.8439 9.72941 45.7904 9.77172 45.7364 9.81456C45.7432 9.8344 45.7495 9.85425 45.7563 9.8741C45.8811 9.84433 46.0059 9.81403 46.1312 9.78426C46.1381 9.80411 46.1449 9.82344 46.1517 9.84329C45.7463 10.0125 45.3404 10.1818 44.9345 10.35L44.934 10.3489ZM46.1014 10.2168C46.0898 10.1886 46.0788 10.1598 46.0673 10.1316C46.3494 10.0146 46.6315 9.89709 46.9137 9.78008C46.931 9.82396 46.9483 9.86784 46.9656 9.91224C46.6777 10.0136 46.3893 10.1154 46.1014 10.2168ZM46.2162 9.62181C46.2272 9.59464 46.2388 9.56748 46.2498 9.54032C46.4952 9.47032 46.7406 9.40033 46.9944 9.32824C46.9488 9.67352 46.4254 9.78792 46.2157 9.62181H46.2162ZM48.9064 13.0584C48.8881 13.7688 48.6468 13.4475 48.209 13.0965C48.1985 13.12 48.1702 13.1848 48.135 13.2658C47.8261 13.097 47.5419 12.6337 47.4627 12.3083C47.4837 12.291 47.5047 12.2738 47.5262 12.2566C47.7821 12.4676 48.0385 12.6792 48.2923 12.8886C48.4984 12.3626 47.7983 12.2999 47.6117 11.9515C47.393 11.5436 47.5634 10.7167 47.6856 10.2977C47.6526 10.2909 47.577 10.2758 47.5015 10.2601C47.4968 10.234 47.4921 10.2079 47.4874 10.1823C47.9787 9.99111 48.4696 9.79993 48.961 9.60822C48.9725 9.63643 48.984 9.66464 48.9956 9.69285C48.6238 9.85112 48.2525 10.0099 47.8807 10.1682C47.8938 10.2079 47.9064 10.2481 47.9195 10.2878C48.0485 10.2554 48.8582 9.94149 48.9583 10.0172C49.1539 10.1645 48.9662 11.2933 48.9709 11.5049C48.9819 12.034 48.9195 12.5329 48.9059 13.0584H48.9064ZM47.3342 9.74299C47.3227 9.71322 47.3106 9.68292 47.2991 9.65315C47.8167 9.41652 48.5451 8.93073 49.1167 9.02632C48.941 9.44212 47.7716 9.60352 47.3342 9.74299ZM47.3673 9.21123L49.0165 8.74686C48.5393 9.12922 47.9336 9.10311 47.404 9.31884C47.3914 9.2828 47.3793 9.24728 47.3668 9.21123H47.3673ZM47.4622 8.93491C47.4512 8.90461 47.4402 8.87431 47.4297 8.84402C48.1035 8.57866 48.7921 8.3577 49.4822 8.13779C50.0748 7.9487 50.7838 7.61857 51.4047 7.71938C51.4026 7.73453 51.4005 7.7502 51.3979 7.76535C50.0858 8.15503 48.7743 8.54523 47.4622 8.93491ZM49.5415 9.02527C49.5221 9.01065 49.5032 8.9955 49.4838 8.98087C49.8346 8.57709 50.4928 8.51128 50.9957 8.35091C51.497 8.19107 52.1777 7.75125 52.6774 8.05735C51.6187 8.38382 50.5803 8.70455 49.5415 9.02527ZM7.41989 28.3081C7.8132 28.7223 8.11841 29.2546 8.48234 29.6981C9.21862 30.596 9.91765 31.6167 10.5212 32.6034C11.0976 33.5452 11.9691 34.463 12.7411 35.2465C13.1643 35.6759 13.6153 36.0766 14.0489 36.495C14.286 36.7238 14.4632 36.9317 14.6442 37.2028C14.7779 37.4039 14.7501 37.57 15.0511 37.5977C14.9347 37.6713 14.8754 37.7089 14.7433 37.792C14.9037 37.8124 15.2016 37.7518 15.3028 37.8677C15.392 37.9701 15.3143 38.4125 15.3075 38.517C15.2834 38.8832 15.3872 39.5064 14.8807 39.3141C14.4868 39.1647 14.5686 38.8712 14.49 38.5734C14.3914 38.201 14.0107 37.8536 13.7773 37.5622C13.6672 37.4248 13.5654 37.2038 13.4375 37.0926C13.3337 37.0027 13.2052 37.0085 13.0935 36.9108C12.8056 36.658 12.568 36.1413 12.3583 35.8211C11.815 34.9901 10.8044 34.2034 10.5443 33.2381C9.92604 32.6609 9.45565 31.9494 8.8573 31.3717C8.78126 31.2986 8.65121 31.3085 8.5694 31.2437C8.39005 31.1006 8.19392 30.7417 8.05705 30.5573C7.81582 30.2319 7.25628 29.744 7.37532 29.3026C6.96628 28.7803 6.55672 28.2579 6.14768 27.7351L6.23315 27.6489C6.434 27.8061 6.59447 27.9576 6.83832 28.0391C7.18024 28.1529 7.1451 28.0161 7.42094 28.3076L7.41989 28.3081ZM6.61597 27.3208C6.29032 27.3182 6.13457 27.1568 6.19959 26.8575C6.34852 27.0231 6.47124 27.1605 6.61597 27.3208ZM5.20741 26.1413C5.50632 26.064 6.33594 25.8708 5.62169 25.6905C5.53884 25.5015 5.47066 25.3453 5.40249 25.1891C5.3747 25.1891 5.34743 25.1891 5.31963 25.1891C5.6175 24.3528 6.23001 25.3144 6.52997 25.6587C6.38785 25.7558 6.0129 25.922 5.92061 26.064C5.81625 26.2249 5.91851 26.4647 5.82779 26.5739C5.49531 26.9745 5.18643 26.4271 5.20741 26.1408V26.1413ZM4.67618 24.7519C4.70817 24.7623 4.74069 24.7722 4.77268 24.7827C4.76114 24.9138 4.7323 25.0413 4.68615 25.164C4.67251 25.2784 4.72181 25.3578 4.83403 25.4027C4.84242 25.549 4.9709 25.6785 4.73072 25.7699C4.03693 26.0343 4.58913 24.9148 4.67618 24.7513V24.7519ZM4.57602 24.4933C4.34213 24.7106 4.13237 24.906 3.88747 25.1332C3.28283 24.3408 2.60791 23.5499 2.09452 22.6948C1.87951 22.3365 1.77673 21.9578 1.53812 21.6141C1.22347 21.1601 1.33675 20.8953 1.30004 20.363C2.39658 21.7457 3.49364 23.1284 4.57602 24.4928V24.4933ZM1.76362 20.2664L1.80976 20.3427C1.71852 20.2246 1.62727 20.106 1.50613 19.9493C1.74998 19.9781 1.92304 19.9979 2.14748 20.024C1.99855 20.118 1.88108 20.1922 1.76362 20.2659V20.2664ZM1.36244 9.62651C1.16946 9.52151 0.994307 9.42592 0.81863 9.33033C0.828594 9.3063 0.838033 9.28227 0.847997 9.25772H1.50508C1.44949 9.40033 1.41069 9.5001 1.36192 9.62599L1.36244 9.62651ZM6.34643 15.1917C5.44759 14.4797 4.71656 13.5139 3.96351 12.6504C3.16589 11.7358 2.30585 10.8598 1.52973 9.93052C1.643 9.83493 1.74002 9.75239 1.79508 9.7059C2.728 10.4597 3.45221 11.3983 4.19006 12.3365C4.5713 12.8212 4.94468 13.3123 5.33432 13.7902C5.68829 14.2238 6.22739 14.6218 6.40044 15.1546C6.38209 15.1671 6.36426 15.1792 6.3459 15.1917H6.34643ZM6.33594 14.5309C5.91169 13.9772 5.38414 13.5024 5.09728 12.8442C5.11721 12.8291 5.13661 12.8134 5.15654 12.7983C5.60229 13.2935 6.29084 13.8236 6.46232 14.4729C6.42037 14.4923 6.37789 14.5116 6.33594 14.5309ZM11.4615 20.0355C11.7882 20.3683 12.1149 20.701 12.4422 21.0337C12.4217 21.0614 12.4013 21.0896 12.3808 21.1173C12.2261 21.0478 12.0709 20.9789 11.8711 20.8896C12.2654 20.5317 11.439 20.4926 11.3986 20.0982C11.4196 20.0773 11.4411 20.0569 11.462 20.036L11.4615 20.0355ZM11.1841 19.5638L11.0913 19.6923C10.9429 19.5779 10.7373 19.3356 10.5627 19.2671C10.4169 19.2097 10.3466 19.3058 10.2155 19.2504C9.88514 19.1115 9.43782 18.3614 9.2097 18.0929C9.23854 18.0636 9.26686 18.0344 9.2957 18.0046C9.92499 18.5243 10.5548 19.0441 11.1841 19.5633V19.5638ZM8.9412 17.1349C9.24431 17.4702 9.54795 17.8061 9.85105 18.1414C9.8306 18.1602 9.81015 18.1785 9.7897 18.1973C9.47977 17.8677 9.16985 17.5381 8.8594 17.2085C8.88666 17.184 8.91341 17.1594 8.94068 17.1349H8.9412ZM8.76657 18.3426C9.20813 18.7756 9.59304 19.1532 9.97796 19.5309C9.96485 19.5654 9.95121 19.6004 9.9381 19.6349C9.69792 19.5931 8.96008 19.5931 8.79227 19.4003C8.65068 19.2379 8.7671 18.5536 8.7671 18.3426H8.76657ZM10.72 20.4544C10.2003 20.4811 9.68062 20.5333 9.16093 20.5526C8.77864 20.5667 8.68372 20.5913 8.67795 20.1812C9.20865 20.1577 10.5155 19.7957 10.72 20.4539V20.4544ZM7.41622 15.5662C7.68577 15.7219 8.0324 15.7987 8.01877 16.2458C7.80428 16.0358 7.5898 15.8264 7.37479 15.6164C7.38843 15.5997 7.40259 15.5829 7.41622 15.5662ZM6.58923 14.4844C6.84094 14.7153 7.24736 14.9269 7.19072 15.2826C6.83518 15.0731 6.62436 14.8224 6.58923 14.4844ZM8.41994 17.4441C7.83994 16.8079 7.27253 16.1863 6.70565 15.5641C7.13776 15.6441 8.47028 17.162 8.41994 17.4441ZM12.2827 21.7185C11.0598 21.8214 9.83689 21.9244 8.54842 22.033C8.54842 21.7661 8.42151 21.1246 8.59247 20.924C8.79227 20.69 9.2312 20.7793 9.51438 20.7715C10.0173 20.7569 11.0509 20.4915 11.2685 21.0839C10.8459 21.2213 9.23015 20.7987 9.05605 21.3346C9.33294 21.5242 10.2837 21.4062 10.6429 21.3769C11.1935 21.3325 11.5344 21.2866 11.9099 21.7259C11.9487 21.6412 11.9712 21.5921 12.0022 21.5248C12.0992 21.566 12.1962 21.6073 12.2932 21.6486C12.2896 21.6721 12.2859 21.6956 12.2822 21.7185H12.2827ZM12.4741 21.8638C12.567 22.0194 12.6603 22.1761 12.7626 22.349C12.4516 22.2404 12.3955 22.1411 12.4741 21.8638ZM12.2896 21.2698C12.5853 21.1633 12.6021 21.1742 13.0022 21.7473C12.7762 21.5958 12.5507 21.4448 12.2896 21.2698ZM13.5576 23.1801C13.4123 23.0213 13.2671 22.863 13.1218 22.7042C13.1506 22.6792 13.1795 22.6541 13.2083 22.6285L13.6441 23.1007C13.6153 23.1268 13.5864 23.1535 13.5576 23.1796V23.1801ZM14.18 23.9114C14.0537 23.7897 13.9273 23.668 13.8009 23.5463C13.8303 23.517 13.8591 23.4872 13.8885 23.458C14.0122 23.5823 14.1355 23.7066 14.2592 23.831C14.233 23.8576 14.2063 23.8842 14.18 23.9114ZM14.6237 23.5311C14.5561 23.4371 14.5435 23.353 14.4333 23.2491C14.3017 23.1247 14.0841 23.0265 13.9367 22.9017C13.9514 22.8761 13.9661 22.85 13.9808 22.8244C14.0967 22.8583 14.4061 22.9194 14.5136 22.9905C14.759 23.1524 14.6473 23.202 14.8209 23.3634C15.0306 23.5578 15.2294 23.6507 15.4198 23.9469C14.985 24.0697 14.8135 23.796 14.6237 23.5316V23.5311ZM15.2336 24.171C15.629 24.1224 15.9919 24.3591 16.1151 24.7367C15.6993 24.7393 15.4239 24.5293 15.2336 24.171ZM16.1985 25.0836C16.1099 25.0501 16.0213 25.0167 15.9326 24.9838C15.9468 24.9441 15.9615 24.9044 15.9756 24.8652C16.274 24.9572 16.2499 24.8898 16.1985 25.0841V25.0836ZM16.5079 33.7469C16.468 33.7348 16.4282 33.7228 16.3878 33.7113C16.445 33.539 16.5016 33.3666 16.5588 33.1942C16.5887 33.2015 16.618 33.2083 16.6479 33.2156C16.6012 33.3927 16.5546 33.5703 16.5079 33.7474V33.7469ZM16.951 33.8503C16.8582 33.8263 16.7832 33.8069 16.7082 33.7881C16.6998 33.761 16.6914 33.7338 16.6825 33.7066C16.7701 33.6413 16.8577 33.5766 17.0077 33.4648C16.9825 33.6372 16.9689 33.7265 16.951 33.8503ZM17.9364 34.1653C17.7859 33.9501 17.8179 33.9359 17.9579 33.7103C18.0093 33.7745 18.0602 33.8393 18.1378 33.937C18.0533 34.0331 17.9946 34.0994 17.9364 34.1653ZM18.593 27.5115C18.5001 27.8855 18.4619 27.8698 18.0879 28.0626C18.39 28.108 18.4818 28.1853 18.5122 28.4658C18.5505 28.8189 18.4099 29.3021 18.4105 29.6798C18.412 30.6336 18.3024 31.5932 18.2447 32.5449C18.2337 32.7256 18.3197 33.295 18.154 33.3984C17.9568 33.5222 17.4964 33.1644 17.3443 33.0474C17.133 32.8844 16.9217 32.6619 16.7392 32.488C16.531 32.29 16.5677 32.5292 16.4691 32.2148C16.4125 32.0346 16.5588 31.671 16.5892 31.4965C16.6018 31.4929 16.6144 31.4898 16.6275 31.4861C16.5236 30.9585 16.6091 30.7067 16.6542 30.1901C16.6741 29.9603 16.6275 29.7561 16.6731 29.5288C16.7067 29.3617 16.8535 29.218 16.8729 29.0462C16.9164 28.6701 16.6941 28.2292 16.7664 27.8108C16.8399 27.3856 17.0171 27.0293 16.9662 26.5686C17.1802 26.2019 18.4587 26.1215 18.6506 26.4349C18.7618 26.6167 18.6402 27.3229 18.5935 27.5115H18.593ZM18.7461 25.7229C18.5909 26.1455 17.3176 25.8859 17.004 25.7642C17.0108 25.7344 17.0182 25.7041 17.025 25.6744C17.1125 25.6634 17.1996 25.6519 17.3034 25.6388C17.2977 25.5469 17.2924 25.4649 17.2851 25.3573C17.5426 25.3573 18.9092 25.28 18.7461 25.7235V25.7229ZM19.0848 26.6094C19.0366 26.518 18.9936 26.4359 18.9501 26.3534C19.2458 26.2223 21.4085 26.3278 21.5496 26.4783C20.7147 26.4783 19.915 26.5185 19.0854 26.6094H19.0848ZM49.1235 26.6256C48.9678 26.648 48.8278 26.6684 48.6877 26.6888C48.6846 26.7133 48.6814 26.7379 48.6778 26.7624C49.0648 26.9364 49.0024 26.9165 49.0412 27.2649C49.0711 27.5355 49.091 27.8406 48.8084 27.9518C48.3899 28.1169 47.2398 27.7643 46.845 27.582C47.1444 27.0607 47.0054 27.1223 46.802 26.625C46.9981 26.5733 47.1512 26.5331 47.3044 26.4929C47.3038 26.4626 47.3033 26.4318 47.3028 26.4015C47.1906 26.3503 47.0778 26.2986 46.9656 26.2474C46.9656 26.2286 46.9656 26.2092 46.9656 26.1904H49.1613C49.1492 26.3325 49.1372 26.4762 49.1246 26.6256H49.1235ZM52.2432 26.5153C51.8557 26.5383 49.7434 26.9285 49.5782 26.4861C49.4707 26.1978 51.8793 26.2265 52.162 26.2239C53.2323 26.2124 54.3351 26.1063 55.4002 26.156C55.4086 26.1957 55.4164 26.2354 55.4248 26.2756C54.4253 26.5295 53.2732 26.4548 52.2432 26.5164V26.5153ZM57.6735 27.5992C57.6504 27.688 57.5943 27.7481 57.5062 27.78C57.4144 28.2083 57.6163 28.8707 57.63 29.3298C57.6467 29.8987 57.5885 30.4712 57.6216 31.039C57.6488 31.5044 57.8476 31.9442 57.3137 32.1991C57.9845 32.3114 57.513 33.9527 57.5403 34.4463C57.179 34.4902 56.8208 34.5189 56.4574 34.5424C56.2948 34.5529 55.7835 34.6829 55.6346 34.5811C55.2974 34.3502 55.4458 33.4517 55.4337 33.0814C55.4133 32.454 55.5176 31.7969 55.4668 31.1837C55.4206 30.6242 55.2455 30.2993 55.8234 30.0104C55.7589 29.8673 55.5276 29.8955 55.4542 29.7529C55.3561 29.5638 55.5586 29.1313 55.6094 28.9417C55.6398 28.9469 55.6702 28.9521 55.7007 28.9574C55.7007 29.3867 56.1412 28.9887 56.3714 28.9182C56.375 28.8863 56.3782 28.8545 56.3819 28.8226C56.2151 28.7824 55.8187 28.7834 55.7054 28.6387C55.5486 28.4387 55.6891 27.9121 55.7064 27.6927C55.7248 27.4608 55.6587 26.9719 55.7872 26.7755C55.9104 26.5874 56.0982 26.6151 56.2869 26.5112C56.0824 26.4454 56.0022 26.3957 55.8527 26.2416C56.2371 26.0531 56.7631 26.1518 57.1874 26.1899C57.6116 26.2281 57.6572 26.1962 57.7322 26.565C57.6981 26.8309 57.5828 27.0523 57.5618 27.3083C57.6551 27.3882 57.6929 27.4848 57.6751 27.5982L57.6735 27.5992ZM55.7416 25.6122C55.4998 25.9601 54.7672 25.7856 54.418 25.7736C53.7478 25.7511 53.077 25.7266 52.4063 25.7282C51.1467 25.7318 49.9054 25.6273 48.6479 25.5986C47.4087 25.5699 46.1706 25.7104 44.9304 25.6999C43.7562 25.69 42.581 25.6326 41.41 25.6958C38.9946 25.8264 36.5865 25.8373 34.1695 25.9011C33.0226 25.9314 31.8636 25.9011 30.7063 25.9303C29.4834 25.9616 28.2127 25.9183 26.9908 25.8587C24.3531 25.7292 21.7079 25.8969 19.0733 25.8969C19.1924 25.2053 20.0922 25.2439 20.625 25.2512C21.3828 25.2617 22.1427 25.269 22.8968 25.2565C24.5964 25.2272 26.3238 25.4069 28.0271 25.3009C29.562 25.2053 31.087 25.2209 32.6246 25.2434C34.1784 25.2659 35.6845 25.2251 37.2425 25.2398C40.5945 25.2706 43.9429 24.9645 47.2965 24.9812C48.0889 24.9848 48.876 24.9394 49.6684 24.9822C50.5782 25.0313 51.5033 25.1969 52.4152 25.1724C53.2595 25.1494 54.0488 25.1024 54.9036 25.1525C55.816 25.2058 56.7285 25.2591 57.641 25.3003C59.4486 25.3818 61.2772 25.3327 63.0875 25.3385C64.0687 25.3416 65.0446 25.304 66.0263 25.3312C66.8465 25.3536 67.8722 25.2502 68.5901 25.701C68.5833 25.7323 68.576 25.7642 68.5691 25.7955C67.557 26.0233 66.3294 25.8373 65.2911 25.8311C64.1541 25.8243 63.0172 25.8243 61.8798 25.8237C60.7591 25.8227 59.5629 25.9361 58.4528 25.7825C57.5697 25.6602 56.6047 26.0369 55.7431 25.6127L55.7416 25.6122ZM59.78 26.2792C59.4397 26.4302 58.5597 26.4605 58.3332 26.2792H59.78ZM59.5687 26.882C59.1712 26.9029 58.6006 27.0549 58.2766 26.7906C58.6232 26.4877 61.1147 26.2698 61.3008 26.8481C60.7219 26.8481 60.1477 26.8517 59.5687 26.882ZM68.0211 39.31H67.0415C67.0415 39.2927 67.041 39.275 67.0405 39.2577C67.3677 39.24 67.6949 39.2222 68.0217 39.2039C68.0217 39.2394 68.0211 39.2744 68.0206 39.31H68.0211ZM70.4738 38.7792C70.3495 38.6351 70.4885 38.1885 70.5079 38.0197C70.5378 38.0098 70.5677 38.0004 70.5975 37.9905C70.801 38.2506 71.005 38.5108 71.2515 38.8257C71.058 38.833 70.6107 38.938 70.4738 38.7792Z" fill="#0A0A0A"/>
<path id="Vector_2" d="M28.2699 28.0673C28.7141 27.7873 29.2379 27.921 29.7183 27.8223C29.712 27.3877 30.1163 27.7366 30.2579 27.5392C29.8882 27.4828 29.4975 27.5731 29.1414 27.5261C29.0533 27.5146 28.8446 27.4049 28.7198 27.3856C28.6008 27.3673 28.4356 27.4274 28.316 27.3751C27.9075 27.1975 28.1624 27.0482 28.5048 27.0346C29.0444 27.0132 29.5631 27.3224 30.055 26.9735C29.5914 26.9416 29.1278 26.9102 28.6648 26.8784C28.6637 26.8486 28.6627 26.8188 28.6616 26.7885C29.0303 26.6945 29.3627 26.7854 29.7346 26.8079C30.1929 26.8356 30.6675 26.7614 31.1258 26.7238C32.0357 26.6501 32.9896 26.5477 33.8968 26.671C33.0976 26.7817 32.3031 26.8914 31.5081 27.0017C31.5107 27.033 31.5128 27.0649 31.5154 27.0962H33.268C33.2743 27.1239 33.2806 27.1516 33.2869 27.1793C32.7447 27.3234 32.1851 27.2372 31.6392 27.3407C31.3791 27.3903 31.2108 27.5308 30.9669 27.6248C30.6528 27.746 30.3245 27.7142 30.002 27.7988C32.5186 27.7507 35.0353 27.7021 37.5519 27.6541C37.553 27.6943 37.554 27.7345 37.5551 27.7742C34.4658 27.9053 31.376 28.0365 28.2867 28.1681C28.2814 28.1347 28.2756 28.1007 28.2704 28.0673H28.2699Z" fill="#0A0A0A"/>
<path id="Vector_3" d="M25.393 31.3696C25.9399 31.1612 26.6232 31.3132 27.2048 31.2594C27.8661 31.1983 28.5158 31.1737 29.1797 31.1612C29.8814 31.1481 30.4157 30.8755 31.088 30.7955C31.6339 30.7308 32.1741 30.8044 32.7148 30.8321C34.1286 30.9047 35.5723 30.7888 36.9855 30.7344C37.7391 30.7052 38.4922 30.677 39.2457 30.6634C39.7696 30.654 40.5353 30.4759 41.0083 30.7015C40.6485 31.1246 39.7015 30.8149 39.1739 30.8692C38.6075 30.9277 38.0632 30.9397 37.4895 30.9528C36.1229 30.9836 34.7453 31.0656 33.3797 31.1387C30.733 31.2808 28.048 31.4699 25.3956 31.4699C25.3945 31.436 25.393 31.4025 25.3919 31.3686L25.393 31.3696Z" fill="#0A0A0A"/>
<path id="Vector_4" d="M58.77 37.5015C58.9446 37.5397 59.0631 37.5653 59.2231 37.6504C58.9011 38.1158 57.4443 37.7847 56.9125 37.7674C56.0111 37.7377 55.1106 37.7695 54.2081 37.7424C53.281 37.7147 52.3533 37.6943 51.4262 37.6666C50.9841 37.6536 50.5425 37.64 50.1004 37.6274C49.7381 37.6175 49.2603 37.7188 48.9525 37.5224C49.4675 37.1296 50.8745 37.3422 51.5116 37.3616C52.4435 37.3898 53.3722 37.4817 54.3046 37.5031C55.2449 37.5245 56.2019 37.5308 57.1412 37.4817C57.4873 37.4634 57.771 37.1693 57.9886 37.1855C58.3122 37.2095 58.4102 37.5987 58.7574 37.5392L58.77 37.5015Z" fill="#0A0A0A"/>
<path id="Vector_5" d="M25.6058 30.3798C25.9289 30.3213 26.5781 30.3422 26.7611 30.0282C27.4093 30.2711 28.1272 30.151 28.8136 30.1348C29.5656 30.117 30.3182 30.1003 31.0702 30.0752C31.7849 30.0517 32.4997 30.0214 33.214 29.9917C33.8506 29.9655 34.5108 29.8715 35.1291 30.0617C34.859 30.2424 25.8628 30.5673 25.6058 30.3798Z" fill="#0A0A0A"/>
<path id="Vector_6" d="M43.9948 30.0778C44.1793 30.0778 44.4882 30.1556 44.6408 30.0501C44.7693 29.9613 44.655 29.8166 44.8427 29.7216C45.0593 29.6113 45.3545 29.8025 45.5491 29.8522C45.8847 29.9373 46.1946 29.9164 46.5565 29.9065C48.2315 29.8616 49.9096 29.8715 51.5845 29.8715C51.5908 29.8997 51.5976 29.9279 51.6039 29.9561C50.4618 30.2518 49.0223 30.0527 47.8376 30.0867C46.5544 30.1238 45.2822 30.1969 43.9974 30.1969C43.9963 30.1572 43.9953 30.117 43.9948 30.0773V30.0778Z" fill="#0A0A0A"/>
<path id="Vector_7" d="M19.2033 30.8472C19.5216 30.55 20.0995 30.6576 20.4986 30.6268C21.0676 30.5829 21.6397 30.5704 22.2092 30.5296C22.7168 30.4931 23.2339 30.3703 23.7358 30.3484C24.1862 30.3291 24.8119 30.2282 25.2345 30.3802C24.9105 30.643 24.4065 30.5814 23.9985 30.6184C23.4405 30.6691 22.8841 30.7355 22.3262 30.7846C21.4158 30.8645 20.0665 31.1539 19.2038 30.8478L19.2033 30.8472Z" fill="#0A0A0A"/>
<path id="Vector_8" d="M33.7751 29.3904C33.2035 29.4536 32.645 29.4646 32.0697 29.4667C31.4032 29.4687 30.7571 29.592 30.0943 29.5972C29.6763 29.6009 29.2536 29.7205 28.853 29.7304C28.6359 29.7362 28.5798 29.6369 28.3669 29.5889C28.0942 29.5272 27.7832 29.5675 27.5058 29.5675C27.5016 29.5335 27.4979 29.4996 27.4937 29.4656C28.564 29.242 29.7109 29.3862 30.8001 29.3199C31.7876 29.2593 32.7834 29.2713 33.7751 29.2713C33.7751 29.311 33.7751 29.3507 33.7751 29.3904Z" fill="#0A0A0A"/>
<path id="Vector_9" d="M52.1409 28.8357C51.1294 28.8602 50.1225 28.9025 49.1125 28.9621C49.1088 28.9856 49.1057 29.0096 49.102 29.0331C49.2583 29.0728 49.4145 29.113 49.5708 29.1527C49.5755 29.182 49.5803 29.2118 49.5844 29.241C48.8351 29.4651 47.9619 29.3413 47.1931 29.2442C47.2645 28.7756 47.1082 29.0655 46.7914 28.9783C47.0274 28.7244 47.3169 28.8519 47.5843 28.809C47.5943 28.8352 47.6048 28.8618 47.6148 28.8879C47.5372 28.9401 47.4595 28.9929 47.3347 29.077C47.7668 29.2985 48.1518 29.0645 48.5367 29.0666C48.5388 29.0457 48.5414 29.0242 48.5435 29.0033C48.2975 28.9856 48.0511 28.9678 47.7805 28.948C48.0102 28.5557 49.3018 28.7437 49.682 28.7333C50.5001 28.7098 51.3166 28.7009 52.1346 28.7009C52.1367 28.7458 52.1383 28.7908 52.1404 28.8357H52.1409Z" fill="#0A0A0A"/>
<path id="Vector_10" d="M19.0476 30.176C19.314 29.743 20.3209 29.8668 20.7477 29.8532C21.5438 29.8287 22.3572 29.8522 23.1453 29.7336C23.1375 30.1483 19.5274 30.2189 19.0481 30.176H19.0476Z" fill="#0A0A0A"/>
<path id="Vector_11" d="M47.48 28.4538C46.8523 28.5703 46.1779 28.4846 45.5402 28.5499C45.0352 28.6011 44.2182 28.6977 43.7881 28.4151C43.9712 28.2663 44.1112 28.2224 44.3424 28.2616C44.4279 28.2762 44.4888 28.3932 44.5858 28.411C44.7573 28.4423 44.9775 28.3807 45.1495 28.3692C45.8627 28.3222 46.8014 28.1576 47.4858 28.3707C47.4837 28.3984 47.4816 28.4261 47.4795 28.4538H47.48Z" fill="#0A0A0A"/>
<path id="Vector_12" d="M44.8878 30.7616C44.2365 30.7935 43.5873 30.853 42.9349 30.8327C42.4195 30.8165 41.6937 30.9753 41.2568 30.724C41.7849 30.4921 42.5138 30.6551 43.0891 30.6394C43.6964 30.6227 44.2926 30.584 44.8873 30.7125C44.8873 30.7287 44.8878 30.7454 44.8884 30.7616H44.8878Z" fill="#0A0A0A"/>
<path id="Vector_13" d="M29.3276 28.7322C28.1314 28.8628 26.9342 28.9673 25.7338 29.0221C25.931 28.8006 28.9778 28.5598 29.3276 28.7322Z" fill="#0A0A0A"/>
<path id="Vector_14" d="M31.4053 12.885C31.1751 12.885 29.1141 12.3924 29.198 12.0534C29.2626 11.7933 31.1242 12.6578 31.421 12.7936C31.4158 12.8239 31.4105 12.8547 31.4053 12.885Z" fill="#0A0A0A"/>
<path id="Vector_15" d="M63.12 32.7956C61.8258 32.8871 60.5315 32.9779 59.2373 33.0694C59.2347 33.0281 59.2315 32.9873 59.2289 32.9461C60.5195 32.8035 61.8137 32.7089 63.1116 32.6724C63.1142 32.7136 63.1174 32.7544 63.12 32.7956Z" fill="#0A0A0A"/>
<path id="Vector_16" d="M43.935 29.392C44.1867 29.3152 47.0185 28.9532 47.0227 29.1919C47.0259 29.3737 44.2486 29.4938 43.9549 29.4938C43.9481 29.4599 43.9413 29.4259 43.935 29.392Z" fill="#0A0A0A"/>
<path id="Vector_17" d="M39.9427 28.1926C40.594 28.0411 41.3507 28.1179 42.0199 28.1315C42.3927 28.1393 42.7672 28.1514 43.1395 28.1749C43.5359 28.1999 43.7782 28.2203 43.4531 28.5713C43.4295 28.5531 43.4064 28.5348 43.3828 28.5165C43.4001 28.459 43.4174 28.4016 43.452 28.2877H39.9516C39.9485 28.2558 39.9458 28.2245 39.9427 28.1926Z" fill="#0A0A0A"/>
<path id="Vector_18" d="M8.63074 25.3301C9.68952 25.2037 10.6518 24.8987 11.6582 24.8762C11.6713 24.907 11.6838 24.9379 11.697 24.9687C11.2271 25.1928 10.6408 25.221 10.1253 25.2915C9.7063 25.349 8.97737 25.571 8.63074 25.3301Z" fill="#0A0A0A"/>
<path id="Vector_19" d="M11.762 22.5126C11.3378 22.7001 10.9062 22.6666 10.4463 22.6865C10.1232 22.7006 9.70632 22.8442 9.43939 22.6489C9.84266 22.3188 11.2124 22.3846 11.7389 22.4211C11.7468 22.4514 11.7547 22.4817 11.7625 22.512L11.762 22.5126Z" fill="#0A0A0A"/>
<path id="Vector_20" d="M42.8332 27.6661H39.5074C39.5048 27.6494 39.5027 27.6327 39.5001 27.616C40.09 27.5622 40.6705 27.5805 41.2616 27.5606C41.7493 27.5439 42.4126 27.3741 42.8516 27.5789C42.8458 27.6081 42.8395 27.6369 42.8337 27.6661H42.8332Z" fill="#0A0A0A"/>
<path id="Vector_21" d="M25.878 29.9123C25.3379 29.9123 24.7972 29.9091 24.2571 29.9123C24.1747 29.9123 23.1049 29.8679 23.3121 29.7613C23.46 29.6856 23.6965 29.7843 23.848 29.7906C24.1024 29.8015 24.3719 29.7535 24.6247 29.7341C25.0557 29.7018 25.5162 29.5962 25.92 29.7576C25.9058 29.8094 25.8922 29.8606 25.878 29.9123Z" fill="#0A0A0A"/>
<path id="Vector_22" d="M13.729 30.257C14.0159 30.0961 14.5408 30.0972 14.8859 30.0596C15.1942 30.0256 15.6289 29.9697 15.8959 30.1363C15.5293 30.5574 14.3001 30.361 13.7647 30.361C13.7526 30.3265 13.7411 30.2915 13.729 30.257Z" fill="#0A0A0A"/>
<path id="Vector_23" d="M35.1187 29.2583C35.9509 29.2013 37.2388 28.8717 38.0207 29.1574C38.0171 29.1888 38.0129 29.2206 38.0092 29.252C37.048 29.2844 36.0862 29.3173 35.1249 29.3497C35.1228 29.3194 35.1208 29.2885 35.1192 29.2583H35.1187Z" fill="#0A0A0A"/>
<path id="Vector_24" d="M51.6538 31.2573C51.2636 31.389 50.7838 31.3696 50.3742 31.3305C50.0533 31.3002 49.6647 31.3425 49.3705 31.2678C49.6122 30.923 51.2657 31.004 51.6391 31.1899C51.6438 31.2124 51.649 31.2349 51.6538 31.2573Z" fill="#0A0A0A"/>
<path id="Vector_25" d="M25.8875 27.5888C26.2912 27.4744 27.2944 27.3115 27.6416 27.5606C27.3432 27.8286 26.2514 27.7852 25.8895 27.6943L25.888 27.5888H25.8875Z" fill="#0A0A0A"/>
<path id="Vector_26" d="M62.6947 32.1359C62.0575 32.266 60.9578 32.1829 60.8141 31.9781C61.3024 31.7953 62.1729 32.009 62.7041 32.0372L62.6947 32.1359Z" fill="#0A0A0A"/>
<path id="Vector_27" d="M40.3092 29.8657C40.8011 29.7858 42.1614 29.4562 42.5343 29.8239C42.0413 30.1363 40.9076 29.9242 40.3228 29.9242C40.3181 29.9049 40.3134 29.8851 40.3092 29.8657Z" fill="#0A0A0A"/>
<path id="Vector_28" d="M10.8804 27.2775C11.4903 27.1939 12.1002 27.1103 12.7096 27.0262C12.7148 27.0654 12.7195 27.1046 12.7248 27.1433C12.1327 27.3653 11.5129 27.3825 10.8899 27.3778C10.8867 27.3444 10.8836 27.3109 10.8804 27.277V27.2775Z" fill="#0A0A0A"/>
<path id="Vector_29" d="M34.4726 32.1124C33.8622 32.173 33.2512 32.2341 32.6177 32.2973C32.7557 32.0372 34.1868 31.8752 34.4726 32.1124Z" fill="#0A0A0A"/>
<path id="Vector_30" d="M30.979 11.3153C30.7771 11.4161 29.7277 11.0593 29.2652 10.7694C29.6312 10.5082 30.6234 11.1748 30.979 11.3153Z" fill="#0A0A0A"/>
<path id="Vector_31" d="M37.3253 28.1655H39.7109C39.7109 28.1937 39.7109 28.2224 39.7109 28.2506H37.3258C37.3258 28.2224 37.3258 28.1937 37.3258 28.1655H37.3253Z" fill="#0A0A0A"/>
<path id="Vector_32" d="M23.966 29.1089C24.277 28.9516 25.1653 28.786 25.481 28.948C25.2901 29.2285 24.3174 29.195 24.0001 29.2337C23.9886 29.1919 23.9775 29.1506 23.966 29.1089Z" fill="#0A0A0A"/>
<path id="Vector_33" d="M35.2335 26.5921C35.7988 26.414 36.3657 26.6068 36.9315 26.5498C36.9315 26.5869 36.9315 26.6235 36.932 26.6606H35.234V26.5921H35.2335Z" fill="#0A0A0A"/>
<path id="Vector_34" d="M13.6824 29.3794C14.0914 29.0827 14.5665 29.4557 15.0139 29.1752C14.9488 29.6897 14.0374 29.5184 13.6619 29.4818C13.6687 29.4478 13.6756 29.4134 13.6824 29.3794Z" fill="#0A0A0A"/>
<path id="Vector_35" d="M27.4182 32.2759C27.811 32.2759 28.7156 32.1098 29.0145 32.3663C28.8436 32.5381 27.5656 32.5016 27.4182 32.2759Z" fill="#0A0A0A"/>
<path id="Vector_36" d="M15.1119 29.1909C15.5545 29.17 15.9331 29.1522 16.3406 29.1329C16.2456 29.4238 15.3704 29.4635 15.1119 29.1909Z" fill="#0A0A0A"/>
<path id="Vector_37" d="M40.0239 29.2154H38.6353C38.6353 29.1877 38.6353 29.1606 38.6348 29.1329C39.0957 28.9527 39.5609 29.0279 40.0265 29.1073C40.026 29.1433 40.025 29.1794 40.0244 29.2154H40.0239Z" fill="#0A0A0A"/>
<path id="Vector_38" d="M42.8017 29.7535C43.3566 29.7535 43.9067 29.7227 44.4594 29.7227C44.4594 29.7655 44.4594 29.8078 44.4594 29.8506H42.8038C42.8028 29.8182 42.8023 29.7859 42.8012 29.7535H42.8017Z" fill="#0A0A0A"/>
<path id="Vector_39" d="M27.1014 27.2017H25.7469C26.1748 26.9071 26.9399 26.9432 27.1014 27.2017Z" fill="#0A0A0A"/>
<path id="Vector_40" d="M14.2404 32.4352C14.4423 32.2346 14.995 32.1391 15.3809 32.2252C15.2624 32.4415 14.6552 32.5601 14.2404 32.4352Z" fill="#0A0A0A"/>
<path id="Vector_41" d="M14.1653 30.9538C14.5062 30.9172 15.2608 30.6806 15.5456 30.8754C15.3038 31.215 14.49 31.1345 14.1653 30.9538Z" fill="#0A0A0A"/>
<path id="Vector_42" d="M37.8718 27.7215C38.3416 27.4133 38.7937 27.7716 39.2184 27.593C39.2205 27.6358 39.2226 27.6787 39.2247 27.7215H37.8718Z" fill="#0A0A0A"/>
<path id="Vector_43" d="M38.7827 31.9217C38.6065 31.9217 38.0611 32.0288 38.0658 31.7953C38.0721 31.4809 38.8881 31.7436 39.0129 31.8262C38.9447 31.8763 38.8771 31.9264 38.8089 31.9766C38.8 31.9583 38.7911 31.94 38.7822 31.9223L38.7827 31.9217Z" fill="#0A0A0A"/>
<path id="Vector_44" d="M14.062 27.8756C13.9325 27.897 13.0761 28.1002 13.0971 27.9331C13.1307 27.6656 13.8743 27.7905 14.0458 27.7905C14.051 27.8192 14.0568 27.8474 14.062 27.8761V27.8756Z" fill="#0A0A0A"/>
<path id="Vector_45" d="M31.3832 28.41C31.7729 28.3812 32.1625 28.352 32.5527 28.3232C32.5548 28.3488 32.5574 28.3744 32.5595 28.4C32.1835 28.5776 31.7802 28.4664 31.3916 28.5071C31.389 28.4747 31.3859 28.4429 31.3832 28.4105V28.41Z" fill="#0A0A0A"/>
<path id="Vector_46" d="M14.1722 27.9304C14.2571 27.7376 14.8051 27.6342 15.1743 27.7063C14.9808 27.8985 14.4281 27.8808 14.1722 27.9304Z" fill="#0A0A0A"/>
<path id="Vector_47" d="M51.7906 31.2301C52.013 31.0818 52.3072 31.0959 52.4734 31.2495C52.2894 31.4077 52.0235 31.4051 51.7906 31.2301Z" fill="#0A0A0A"/>
<path id="Vector_48" d="M32.4788 32.2446C32.2459 32.3783 31.872 32.3057 31.6077 32.3057C31.7939 32.1239 32.3026 32.0691 32.4788 32.2446Z" fill="#0A0A0A"/>
<path id="Vector_49" d="M54.2795 31.2171C53.9423 31.2349 53.6046 31.2526 53.2674 31.2699C53.2653 31.2307 53.2637 31.1915 53.2616 31.1523H54.2643C54.2695 31.1738 54.2742 31.1952 54.2795 31.2171Z" fill="#0A0A0A"/>
<path id="Vector_50" d="M8.7576 12.8265C9.11053 13.061 8.84099 13.3802 8.4975 13.1258C8.58507 13.025 8.66059 12.9377 8.7576 12.8265Z" fill="#0A0A0A"/>
<path id="Vector_51" d="M48.413 31.3513C48.1696 31.367 47.9263 31.3821 47.6835 31.3978C47.6809 31.3545 47.6777 31.3116 47.6751 31.2683C47.92 31.251 48.1644 31.2338 48.4093 31.2166C48.4109 31.2615 48.4119 31.3064 48.4135 31.3513H48.413Z" fill="#0A0A0A"/>
<path id="Vector_52" d="M38.7439 29.9107H39.7098C39.7114 29.9279 39.7125 29.9457 39.714 29.9629C39.39 29.987 39.0664 30.0115 38.7423 30.0355C38.7423 29.9938 38.7434 29.952 38.7439 29.9107Z" fill="#0A0A0A"/>
<path id="Vector_53" d="M31.4231 12.6484C31.2123 12.5444 31.001 12.4405 30.7618 12.3224C31.0162 12.2237 31.1038 12.2624 31.4231 12.6484Z" fill="#0A0A0A"/>
<path id="Vector_54" d="M21.7929 33.9062C21.8202 33.9318 21.8642 33.9725 21.9077 34.0127C21.7336 34.1276 21.5621 34.1788 21.3618 34.1031C21.4588 33.9323 21.6009 33.9469 21.7924 33.9056L21.7929 33.9062Z" fill="#0A0A0A"/>
<path id="Vector_55" d="M37.2829 31.8126C37.4858 31.7969 37.683 31.6057 37.9646 31.8492C37.6914 31.8695 37.4864 31.8852 37.2813 31.9009C37.2813 31.8716 37.2824 31.8424 37.2829 31.8131V31.8126Z" fill="#0A0A0A"/>
<path id="Vector_56" d="M27.6054 28.0485C27.7774 28.0203 27.9499 27.9926 28.122 27.9644C28.1272 27.9967 28.1319 28.0296 28.1372 28.062C27.9919 28.2799 27.7963 28.142 27.6175 28.1268C27.6133 28.1007 27.6096 28.0746 27.6054 28.0479V28.0485Z" fill="#0A0A0A"/>
<path id="Vector_57" d="M30.3224 12.1704C29.7015 11.9045 29.8383 11.7415 30.3628 12.0628C30.3491 12.0988 30.336 12.1344 30.3224 12.1704Z" fill="#0A0A0A"/>
<path id="Vector_58" d="M40.9548 29.2034H40.2626C40.2626 29.181 40.2626 29.1585 40.2626 29.136H40.9585C40.9574 29.1585 40.9564 29.181 40.9553 29.2034H40.9548Z" fill="#0A0A0A"/>
<path id="Vector_59" d="M60.2651 32.0137C60.4051 31.9886 60.5451 31.963 60.7077 31.9338C60.6421 32.1735 60.574 32.1934 60.2887 32.103C60.2808 32.0732 60.2729 32.0435 60.2651 32.0137Z" fill="#0A0A0A"/>
<path id="Vector_60" d="M36.1475 28.2C36.3043 28.1723 36.4611 28.1446 36.6316 28.1143C36.565 28.3269 36.3888 28.3734 36.1475 28.2Z" fill="#0A0A0A"/>
<path id="Vector_61" d="M35.1768 28.3875C35.0022 28.3707 34.8276 28.3535 34.653 28.3368C34.6551 28.3159 34.6571 28.295 34.6587 28.2741H35.1884C35.1842 28.3117 35.1805 28.3498 35.1763 28.3875H35.1768Z" fill="#0A0A0A"/>
<path id="Vector_62" d="M46.9598 31.3597H46.5424C46.5424 31.3341 46.5424 31.308 46.5424 31.2824C46.6829 31.2244 46.8213 31.0985 46.9671 31.2641C46.9645 31.296 46.9619 31.3278 46.9593 31.3597H46.9598Z" fill="#0A0A0A"/>
<path id="Vector_63" d="M28.6506 10.5344C28.8315 10.3855 28.9851 10.4111 29.1409 10.6258C28.9322 10.7386 28.7943 10.6284 28.6537 10.5291L28.6506 10.5338V10.5344Z" fill="#0A0A0A"/>
<path id="Vector_64" d="M45.5717 30.7303L45.0635 30.7825C45.2041 30.5229 45.3929 30.642 45.5685 30.6618C45.5696 30.6848 45.5712 30.7073 45.5722 30.7303H45.5717Z" fill="#0A0A0A"/>
<path id="Vector_65" d="M35.7626 30.1259H35.3095C35.4742 29.9661 35.6226 30 35.7626 30.1259Z" fill="#0A0A0A"/>
<path id="Vector_66" d="M27.0176 28.0788C27.4895 27.944 27.5436 28.2329 27.0097 28.1514C27.0123 28.1273 27.0149 28.1028 27.0176 28.0788Z" fill="#0A0A0A"/>
<path id="Vector_67" d="M40.5751 31.6496C40.7371 31.4344 40.8263 31.4266 41.1032 31.5937C40.9479 31.6104 40.7927 31.6266 40.5751 31.6496Z" fill="#0A0A0A"/>
<path id="Vector_68" d="M35.3751 28.2167L35.7794 28.1932C35.781 28.2256 35.7831 28.2585 35.7846 28.2909H35.3871C35.3835 28.2663 35.3793 28.2412 35.3756 28.2167H35.3751Z" fill="#0A0A0A"/>
<path id="Vector_69" d="M34.3441 27.0372H35.03C35.031 27.0508 35.0326 27.0643 35.0337 27.0779C34.804 27.0946 34.5737 27.1119 34.3441 27.1286V27.0372Z" fill="#0A0A0A"/>
<path id="Vector_70" d="M31.7031 11.6172C31.8232 11.6684 31.9433 11.7196 32.0629 11.7708C32.044 11.811 32.0256 11.8512 32.0068 11.8914C31.8893 11.835 31.7718 11.7786 31.6544 11.7217C31.6706 11.6867 31.6869 11.6522 31.7026 11.6172H31.7031Z" fill="#0A0A0A"/>
<path id="Vector_71" d="M32.5579 12.0424C32.6812 12.0826 32.8044 12.1223 32.9276 12.1626C32.9166 12.2017 32.9051 12.2414 32.8941 12.2806C32.7714 12.2456 32.6487 12.2106 32.5259 12.1756C32.5364 12.1312 32.5474 12.0868 32.5579 12.0424Z" fill="#0A0A0A"/>
<path id="Vector_72" d="M22.4222 26.5467C22.2764 26.5566 22.1306 26.5666 21.9843 26.576C21.9806 26.5431 21.9769 26.5101 21.9733 26.4767C22.1175 26.4558 22.2617 26.4354 22.4059 26.4146C22.4111 26.4584 22.4164 26.5023 22.4216 26.5462L22.4222 26.5467Z" fill="#0A0A0A"/>
<path id="Vector_73" d="M33.1773 28.4544C33.0346 28.4356 32.892 28.4173 32.7499 28.3985L32.753 28.3248H33.1899L33.1773 28.4544Z" fill="#0A0A0A"/>
<path id="Vector_74" d="M39.8005 31.8706C39.8577 31.7593 39.8865 31.7034 39.9269 31.6251C40.0129 31.7065 40.0832 31.7729 40.2106 31.8936C40.0502 31.8847 39.9547 31.8789 39.8011 31.8706H39.8005Z" fill="#0A0A0A"/>
<path id="Vector_75" d="M41.0051 31.8502C40.8772 31.8747 40.7487 31.8993 40.6207 31.9233C40.6129 31.8847 40.6055 31.846 40.5977 31.8079C40.7251 31.7818 40.8525 31.7551 40.9805 31.729C40.9889 31.7692 40.9973 31.81 41.0056 31.8502H41.0051Z" fill="#0A0A0A"/>
<path id="Vector_76" d="M35.5691 32.0074H35.1286C35.1249 31.9902 35.1218 31.973 35.1181 31.9557C35.2634 31.9333 35.4086 31.9113 35.5539 31.8889C35.5586 31.9286 35.5639 31.9677 35.5686 32.0074H35.5691Z" fill="#0A0A0A"/>
<path id="Vector_77" d="M45.6036 31.263L46.02 31.2223C46.0221 31.2552 46.0242 31.2881 46.0263 31.321H45.6073C45.6063 31.3017 45.6052 31.2824 45.6036 31.263Z" fill="#0A0A0A"/>
<path id="Vector_78" d="M15.6977 6.0703C16.0097 5.93501 16.2598 6.09276 16.5504 6.22597C16.9043 6.38842 17.4502 6.44118 17.5955 6.81623C16.9814 6.81153 16.2551 6.32469 15.6971 6.0703H15.6977Z" fill="#0A0A0A"/>
<path id="Vector_79" d="M10.1017 3.10539C10.1646 3.1618 10.2611 3.24904 10.388 3.36291C10.0729 3.40209 9.67799 3.17277 9.49969 2.91838C9.61349 2.85622 9.72939 2.84734 9.84738 2.89122C9.86154 2.80138 9.87412 2.72302 9.8951 2.59296C10.0183 2.63318 10.1332 2.67079 10.2475 2.7084C10.2066 2.81914 10.1662 2.92988 10.1017 3.10539Z" fill="#0A0A0A"/>
<path id="Vector_80" d="M18.1734 7.13016C18.4566 6.93271 19.3764 7.33179 19.4199 7.65618C19.002 7.48014 18.6108 7.31508 18.1734 7.13016Z" fill="#0A0A0A"/>
<path id="Vector_81" d="M15.373 6.24115C15.7606 6.37853 16.1056 6.50076 16.5011 6.64075C16.2152 6.80947 15.4711 6.52688 15.373 6.24115Z" fill="#0A0A0A"/>
<path id="Vector_82" d="M10.8091 3.54364C11.1316 3.58282 11.4117 3.71497 11.644 3.9516C11.634 3.97458 11.6241 3.99757 11.6146 4.02003C11.3356 3.89049 11.0572 3.76042 10.7782 3.63087C10.7887 3.60162 10.7987 3.57237 10.8091 3.54364Z" fill="#0A0A0A"/>
<path id="Vector_83" d="M18.6805 7.7993C18.9988 7.62483 19.2101 7.72147 19.3171 8.07824C19.1 7.98317 18.9128 7.90116 18.6805 7.7993Z" fill="#0A0A0A"/>
<path id="Vector_84" d="M17.0223 7.0262C16.8215 6.963 16.6259 6.96038 16.532 6.76502C16.7391 6.66995 16.9861 6.79062 17.0192 7.03038L17.0223 7.02568V7.0262Z" fill="#0A0A0A"/>
<path id="Vector_85" d="M18.2043 6.97136C17.9647 7.05807 17.9605 7.07636 17.7775 6.90293C18.0061 6.80003 18.0056 6.81622 18.2043 6.97136Z" fill="#0A0A0A"/>
<path id="Vector_86" d="M15.1664 5.74438C15.3542 5.77677 15.4743 5.79714 15.6069 5.82013C15.4722 6.05832 15.4313 6.0531 15.1664 5.74438Z" fill="#0A0A0A"/>
<path id="Vector_87" d="M17.0192 7.03091C17.2389 6.98599 17.2835 6.94211 17.4098 7.12441C17.2295 7.1803 17.1849 7.12859 17.0223 7.02621L17.0192 7.03091Z" fill="#0A0A0A"/>
<path id="Vector_88" d="M34.2282 19.5649C34.4285 19.5529 34.6289 19.5409 34.8544 19.5273C34.7259 19.6777 34.5539 19.6997 34.2282 19.5649Z" fill="#0A0A0A"/>
<path id="Vector_89" d="M30.2049 14.3695C30.0387 14.637 29.5589 14.7848 29.1776 14.6443C29.5085 14.5555 29.8399 14.4672 30.2049 14.3695Z" fill="#0A0A0A"/>
<path id="Vector_90" d="M31.2443 14.2844C30.9753 14.3507 30.7063 14.4165 30.3958 14.4933C30.5437 14.1836 30.9061 14.0744 31.2223 14.1919C31.2296 14.2227 31.237 14.2536 31.2443 14.2844Z" fill="#0A0A0A"/>
<path id="Vector_91" d="M44.536 15.2737C44.9104 15.092 46.512 15.5427 46.7542 15.8938C46.1066 16.0014 45.1532 15.4754 44.5328 15.2685L44.5365 15.2737H44.536Z" fill="#0A0A0A"/>
<path id="Vector_92" d="M47.0123 15.8854C47.4071 15.9402 47.7517 16.1319 48.1041 16.3022C48.0941 16.3299 48.0841 16.3576 48.0747 16.3853C47.7113 16.2526 47.3479 16.1194 46.985 15.9867C46.9944 15.9533 47.0033 15.9193 47.0128 15.8859L47.0123 15.8854Z" fill="#0A0A0A"/>
<path id="Vector_93" d="M48.2981 16.3336C48.4952 16.4004 48.6929 16.4673 48.8901 16.5341C48.8786 16.566 48.8676 16.5979 48.856 16.6297C48.6054 16.7149 48.4648 16.485 48.2676 16.4166C48.2776 16.3889 48.2881 16.3612 48.2981 16.3336Z" fill="#0A0A0A"/>
<path id="Vector_94" d="M25.8896 9.21387C26.1303 9.34341 26.3715 9.47348 26.6122 9.60302C26.5886 9.64481 26.5655 9.68608 26.5419 9.72787C26.3044 9.59205 26.0673 9.45572 25.8298 9.31991C25.8497 9.28439 25.8696 9.24939 25.8896 9.21387Z" fill="#0A0A0A"/>
<path id="Vector_95" d="M28.8687 15.2784C28.9411 15.2711 29.0135 15.2643 29.0858 15.257L29.1063 15.3239C28.8472 15.351 28.7224 15.6854 28.3548 15.5903C28.5551 15.4681 28.7145 15.3714 28.8734 15.2748L28.8687 15.2784Z" fill="#0A0A0A"/>
<path id="Vector_96" d="M20.9785 16.9239C21.0561 16.8946 21.6597 16.5948 21.6518 16.7818C21.6424 17.0142 21.1961 17.0163 21.0257 17.0576C21.0099 17.0132 20.9947 16.9683 20.979 16.9239H20.9785Z" fill="#0A0A0A"/>
</g>
<defs>
<clipPath id="clip0_288_12623">
<rect width="72.4324" height="40" fill="white"/>
</clipPath>
</defs>
</svg>
