<svg width="204" height="25" viewBox="0 0 204 25" fill="none" xmlns="http://www.w3.org/2000/svg">
<g id="EditionCrafter">
<path id="Vector" d="M194.756 22.5187V11.1893L192.758 10.1049V9.22023L196.44 8.1358L197.096 8.42118V10.5615C197.476 10.0098 198.161 9.46755 199.151 8.93485C200.14 8.40215 201.044 8.1358 201.862 8.1358C202.547 8.1358 203.003 8.16434 203.231 8.22142V11.0752C203.155 11.0561 202.975 10.9991 202.689 10.9039C202.423 10.8088 202.128 10.7422 201.805 10.7042C201.5 10.6471 201.148 10.6186 200.749 10.6186C200.064 10.6186 199.464 10.7042 198.951 10.8754C198.437 11.0466 197.942 11.2844 197.467 11.5888V22.4901L201.434 22.8041V24.0026H192.501V22.8041L194.756 22.5187Z" fill="#0A0A0A"/>
<path id="Vector_2" d="M184.094 7.93603C185.787 7.91701 187.119 8.45922 188.089 9.56267C189.059 10.6471 189.545 12.1691 189.545 14.1287C189.545 14.8516 189.488 15.6126 189.373 16.4117H179.043C179.043 18.2761 179.518 19.7505 180.47 20.835C181.421 21.9004 182.753 22.4331 184.465 22.4331C185.188 22.4331 185.949 22.357 186.748 22.2048C187.566 22.0335 188.175 21.8338 188.574 21.6055L189.088 22.7755C188.555 23.2511 187.747 23.6316 186.662 23.917C185.578 24.2024 184.484 24.3451 183.381 24.3451C181.174 24.3451 179.452 23.6221 178.215 22.1762C176.998 20.7113 176.389 18.7422 176.389 16.269C176.389 14.6899 176.712 13.282 177.359 12.0454C178.006 10.7898 178.91 9.80048 180.07 9.07753C181.25 8.35458 182.591 7.97408 184.094 7.93603ZM183.352 9.44851C182.21 9.44851 181.24 9.88609 180.441 10.7612C179.661 11.6174 179.205 12.9491 179.071 14.7565H186.691C186.71 14.5472 186.719 14.2333 186.719 13.8147C186.719 12.9015 186.605 12.112 186.377 11.4461C186.168 10.7803 185.787 10.2666 185.235 9.90512C184.76 9.60072 184.132 9.44851 183.352 9.44851Z" fill="#0A0A0A"/>
<path id="Vector_3" d="M169.286 8.42127H173.967V10.1621H169.286V17.1823C169.286 18.7423 169.315 19.8648 169.372 20.5497C169.448 21.2346 169.591 21.7102 169.8 21.9766C170.028 22.2429 170.399 22.3761 170.913 22.3761C171.37 22.3761 171.893 22.3 172.483 22.1478C173.091 21.9956 173.51 21.8434 173.738 21.6912L174.195 22.9183C173.795 23.3368 173.148 23.6793 172.254 23.9456C171.379 24.212 170.58 24.3452 169.857 24.3452C167.726 24.3452 166.661 23.0134 166.661 20.3499V10.1621H164.549V9.13471C164.854 9.03958 165.101 8.98251 165.291 8.96348C165.862 8.81128 166.252 8.67811 166.461 8.56396C166.69 8.44981 166.88 8.21199 167.032 7.85052C167.146 7.54612 167.298 7.04196 167.489 6.33803C167.698 5.63411 167.841 5.08239 167.917 4.68286H169.286V8.42127Z" fill="#0A0A0A"/>
<path id="Vector_4" d="M155.64 22.5188V10.3048H152.558V9.22035L155.64 8.4213V7.25127C155.64 5.95757 155.935 4.79704 156.524 3.7697C157.133 2.72332 157.885 1.91476 158.779 1.34401C159.673 0.754238 160.529 0.459351 161.347 0.459351C162.375 0.459351 163.04 0.544963 163.345 0.716188V3.0848C163.193 2.97065 162.879 2.86601 162.403 2.77088C161.927 2.67576 161.395 2.6282 160.805 2.6282C160.234 2.6282 159.768 2.7043 159.407 2.8565C159.064 3.0087 158.798 3.34163 158.608 3.85531C158.417 4.34996 158.322 5.10144 158.322 6.10977V8.4213H162.517V10.3048H158.322V22.5473L161.518 22.8042V24.0028H152.843V22.8042L155.64 22.5188Z" fill="#0A0A0A"/>
<path id="Vector_5" d="M143.21 8.1358C144.865 8.1358 146.187 8.5163 147.176 9.2773C148.185 10.0383 148.689 11.3605 148.689 13.244L148.66 22.8041H150.429V23.7458C150.087 23.917 149.678 24.0597 149.202 24.1739C148.727 24.288 148.261 24.3451 147.804 24.3451C147.138 24.3451 146.691 24.2119 146.463 23.9456C146.254 23.6792 146.149 23.1941 146.149 22.4901C145.141 23.7268 143.59 24.3451 141.497 24.3451C140.622 24.3451 139.842 24.1548 139.157 23.7743C138.472 23.3938 137.94 22.8802 137.559 22.2333C137.179 21.5674 136.988 20.8445 136.988 20.0645C136.988 18.7898 137.464 17.7529 138.415 16.9539C139.385 16.1548 140.556 15.5841 141.925 15.2416C143.314 14.8992 144.674 14.728 146.006 14.728V13.5294C146.006 12.1786 145.673 11.2559 145.007 10.7613C144.342 10.2476 143.4 9.99074 142.182 9.99074C141.63 9.99074 140.974 10.0954 140.213 10.3047C139.452 10.4949 138.758 10.7422 138.13 11.0466L137.616 9.79098C138.244 9.2773 139.119 8.87778 140.242 8.5924C141.383 8.288 142.372 8.1358 143.21 8.1358ZM146.006 16.1834C144.446 16.1834 143 16.4497 141.668 16.9824C140.356 17.4961 139.699 18.3617 139.699 19.5793C139.699 20.6257 139.975 21.3867 140.527 21.8623C141.098 22.3379 141.925 22.5758 143.01 22.5758C143.523 22.5758 144.066 22.4521 144.636 22.2048C145.226 21.9574 145.673 21.6816 145.978 21.3772L146.006 16.1834Z" fill="#0A0A0A"/>
<path id="Vector_6" d="M126.31 22.5187V11.1893L124.313 10.1049V9.22023L127.994 8.1358L128.65 8.42118V10.5615C129.031 10.0098 129.716 9.46755 130.705 8.93485C131.694 8.40215 132.598 8.1358 133.416 8.1358C134.101 8.1358 134.558 8.16434 134.786 8.22142V11.0752C134.71 11.0561 134.529 10.9991 134.244 10.9039C133.977 10.8088 133.682 10.7422 133.359 10.7042C133.055 10.6471 132.703 10.6186 132.303 10.6186C131.618 10.6186 131.019 10.7042 130.505 10.8754C129.992 11.0466 129.497 11.2844 129.021 11.5888V22.4901L132.988 22.8041V24.0026H124.056V22.8041L126.31 22.5187Z" fill="#0A0A0A"/>
<path id="Vector_7" d="M115.281 2.17133C116.232 2.17133 117.088 2.24743 117.849 2.39963C118.61 2.5328 119.419 2.72305 120.275 2.97037L121.074 3.17014L120.846 7.19392H119.39L118.648 4.88238C118.039 4.48286 117.421 4.207 116.793 4.0548C116.165 3.88357 115.366 3.79796 114.396 3.79796C113.045 3.79796 111.799 4.16895 110.658 4.91092C109.516 5.63387 108.603 6.69927 107.918 8.10712C107.233 9.49594 106.891 11.1416 106.891 13.0441C106.891 14.8515 107.186 16.5066 107.775 18.0096C108.384 19.4936 109.269 20.6826 110.429 21.5768C111.609 22.471 113.017 22.9181 114.653 22.9181C116.765 22.9181 118.249 22.3663 119.105 21.2629L119.904 19.1226H121.102V23.1178C120.855 23.1368 120.56 23.1939 120.218 23.289C119.875 23.3842 119.637 23.4508 119.504 23.4888C118.648 23.7742 117.802 23.993 116.964 24.1452C116.146 24.3164 115.157 24.402 113.997 24.402C112.094 24.402 110.382 23.9549 108.86 23.0607C107.357 22.1666 106.177 20.9299 105.321 19.3509C104.465 17.7528 104.037 15.9359 104.037 13.9002C104.037 11.5792 104.551 9.53399 105.578 7.76467C106.605 5.97632 107.975 4.59701 109.687 3.62674C111.419 2.65646 113.283 2.17133 115.281 2.17133Z" fill="#0A0A0A"/>
<path id="Vector_8" d="M87.2108 22.5472V11.1893L85.2132 10.1049V9.22023L88.9231 8.1358L89.5509 8.42118V10.3903C90.2548 9.80049 91.1775 9.2773 92.319 8.8207C93.4605 8.3641 94.5069 8.1358 95.4581 8.1358C97.0372 8.1358 98.1502 8.64948 98.797 9.67683C99.4629 10.6852 99.7958 12.3498 99.7958 14.6709V22.5472L102.022 22.8041V24.0026H95.0015V22.8041L97.1133 22.5187V15.156C97.1133 13.9765 97.0277 13.0347 96.8565 12.3308C96.7043 11.6079 96.3999 11.0656 95.9433 10.7042C95.4867 10.3427 94.8398 10.162 94.0027 10.162C92.671 10.162 91.3107 10.6471 89.9219 11.6174V22.5187L91.9766 22.8041V24.0026H85.2988V22.8041L87.2108 22.5472Z" fill="#0A0A0A"/>
<path id="Vector_9" d="M75.1505 7.93604C76.6535 7.93604 77.9187 8.288 78.946 8.99192C79.9924 9.67682 80.7629 10.6281 81.2575 11.8457C81.7712 13.0442 82.028 14.4045 82.028 15.9265C82.028 17.5627 81.7046 19.0181 81.0578 20.2928C80.4109 21.5674 79.5263 22.5662 78.4038 23.2892C77.3003 23.9931 76.0827 24.3451 74.751 24.3451C73.1339 24.3451 71.7926 23.9741 70.7272 23.2321C69.6808 22.4711 68.9103 21.4723 68.4157 20.2357C67.921 18.98 67.6737 17.5912 67.6737 16.0692C67.6737 14.4331 68.0162 12.9967 68.701 11.7601C69.3859 10.5234 70.2992 9.5817 71.4406 8.93485C72.6012 8.26897 73.8378 7.93604 75.1505 7.93604ZM74.8081 9.41998C71.9543 9.41998 70.5274 11.5318 70.5274 15.7553C70.5274 17.7339 70.9079 19.3986 71.6689 20.7494C72.449 22.1001 73.5524 22.7755 74.9793 22.7755C76.4632 22.7755 77.5286 22.2238 78.1755 21.1203C78.8414 19.9979 79.1743 18.3427 79.1743 16.1548C79.1743 14.1382 78.8128 12.5115 78.0899 11.2749C77.3669 10.0383 76.273 9.41998 74.8081 9.41998Z" fill="#0A0A0A"/>
<path id="Vector_10" d="M61.7093 1.08722C62.2991 1.08722 62.7367 1.24893 63.022 1.57236C63.3264 1.89578 63.4786 2.31433 63.4786 2.828C63.4786 3.41778 63.2598 3.90292 62.8223 4.28341C62.4037 4.66391 61.9281 4.85416 61.3954 4.85416C60.9198 4.85416 60.5012 4.70196 60.1398 4.39756C59.7973 4.07414 59.6261 3.65559 59.6261 3.14192C59.6261 2.57117 59.8449 2.08603 60.2824 1.6865C60.72 1.28698 61.1956 1.08722 61.7093 1.08722ZM63.2503 8.42135V22.5189L65.5048 22.8042V24.0028H58.3134V22.8042L60.682 22.5189V11.1039L58.7414 10.1051V9.22039L62.6225 8.13597L63.2503 8.42135Z" fill="#0A0A0A"/>
<path id="Vector_11" d="M51.0397 8.42127H55.7198V10.1621H51.0397V17.1823C51.0397 18.7423 51.0682 19.8648 51.1253 20.5497C51.2014 21.2346 51.3441 21.7102 51.5534 21.9766C51.7817 22.2429 52.1527 22.3761 52.6663 22.3761C53.1229 22.3761 53.6461 22.3 54.2359 22.1478C54.8447 21.9956 55.2633 21.8434 55.4915 21.6912L55.9482 22.9183C55.5486 23.3368 54.9018 23.6793 54.0076 23.9456C53.1325 24.212 52.3334 24.3452 51.6105 24.3452C49.4797 24.3452 48.4143 23.0134 48.4143 20.3499V10.1621H46.3025V9.13471C46.6069 9.03958 46.8542 8.98251 47.0445 8.96348C47.6152 8.81128 48.0052 8.67811 48.2145 8.56396C48.4428 8.44981 48.633 8.21199 48.7852 7.85052C48.8994 7.54612 49.0516 7.04196 49.2418 6.33803C49.4511 5.63411 49.5938 5.08239 49.6699 4.68286H51.0397V8.42127Z" fill="#0A0A0A"/>
<path id="Vector_12" d="M40.1954 1.08722C40.7852 1.08722 41.2227 1.24893 41.5081 1.57236C41.8125 1.89578 41.9647 2.31433 41.9647 2.828C41.9647 3.41778 41.7459 3.90292 41.3084 4.28341C40.8898 4.66391 40.4142 4.85416 39.8815 4.85416C39.4059 4.85416 38.9873 4.70196 38.6258 4.39756C38.2834 4.07414 38.1122 3.65559 38.1122 3.14192C38.1122 2.57117 38.3309 2.08603 38.7685 1.6865C39.2061 1.28698 39.6817 1.08722 40.1954 1.08722ZM41.7364 8.42135V22.5189L43.9909 22.8042V24.0028H36.7994V22.8042L39.168 22.5189V11.1039L37.2275 10.1051V9.22039L41.1086 8.13597L41.7364 8.42135Z" fill="#0A0A0A"/>
<path id="Vector_13" d="M32.2868 1.68653V22.8042H34.1703V23.8601C33.8659 24.0314 33.4188 24.174 32.829 24.2882C32.2583 24.4023 31.7256 24.4594 31.2309 24.4594C30.6411 24.4594 30.2416 24.3358 30.0323 24.0884C29.8231 23.8411 29.7184 23.3655 29.7184 22.6616C29.3379 23.0801 28.7386 23.4701 27.9206 23.8316C27.1025 24.174 26.1322 24.3453 25.0098 24.3453C23.9253 24.3453 22.917 24.0599 21.9848 23.4891C21.0716 22.8994 20.3296 22.0147 19.7589 20.8352C19.2071 19.6556 18.9313 18.2002 18.9313 16.4689C18.9313 14.8518 19.2832 13.3964 19.9872 12.1027C20.7101 10.79 21.6804 9.77214 22.898 9.04919C24.1346 8.30722 25.4949 7.93623 26.9788 7.93623C28.0252 7.93623 28.9004 8.0599 29.6043 8.30722V3.65562L26.6364 3.17048V1.94337L31.659 1.37262L32.2868 1.68653ZM26.6364 9.42018C25.8373 9.42018 25.0573 9.63897 24.2963 10.0765C23.5353 10.4951 22.8885 11.1895 22.3558 12.1598C21.8421 13.1301 21.5853 14.3952 21.5853 15.9553C21.5853 17.3631 21.7945 18.5617 22.2131 19.551C22.6316 20.5213 23.1834 21.2442 23.8683 21.7198C24.5532 22.1954 25.2951 22.4333 26.0942 22.4333C26.76 22.4333 27.4069 22.3286 28.0347 22.1194C28.6816 21.9101 29.2048 21.6057 29.6043 21.2062V10.5331C28.9574 9.79117 27.9681 9.42018 26.6364 9.42018Z" fill="#0A0A0A"/>
<path id="Vector_14" d="M2.93455 22.4044V3.96919L0.651557 3.74089V2.37109H15.12L15.5196 6.3378H13.9786L13.3507 3.99773L5.64561 3.8265V11.9597L10.8394 11.8455L11.239 9.67668H12.6658V15.6695H11.239L10.8394 13.5292L5.64561 13.4436V22.49L13.9215 22.2332L15.3198 19.3509L16.6611 19.6933L16.0332 24.0025H0.594482V22.8039L2.93455 22.4044Z" fill="#0A0A0A"/>
</g>
</svg>
